<svg width="36" height="36" viewBox="0 0 36 36" fill="none" xmlns="http://www.w3.org/2000/svg">
<path d="M31.5 10.0625C29.6359 10.0603 27.8488 9.31876 26.5306 8.00063C25.2125 6.6825 24.471 4.89537 24.4688 3.03125C24.4688 2.80747 24.3799 2.59286 24.2216 2.43463C24.0634 2.27639 23.8488 2.1875 23.625 2.1875H18C17.7762 2.1875 17.5616 2.27639 17.4034 2.43463C17.2451 2.59286 17.1562 2.80747 17.1562 3.03125V21.5938C17.1559 22.1473 17.0071 22.6906 16.7252 23.1671C16.4433 23.6435 16.0388 24.0356 15.5538 24.3024C15.0688 24.5693 14.5211 24.7011 13.9678 24.6842C13.4145 24.6672 12.8759 24.5021 12.4081 24.2061C11.9403 23.9101 11.5606 23.494 11.3084 23.0012C11.0562 22.5084 10.9409 21.957 10.9744 21.4044C11.008 20.8519 11.1891 20.3185 11.4991 19.8598C11.809 19.4011 12.2363 19.034 12.7364 18.7967C12.8807 18.7283 13.0026 18.6204 13.088 18.4855C13.1734 18.3506 13.2187 18.1942 13.2188 18.0345V12.0312C13.2186 11.9086 13.1918 11.7875 13.1401 11.6763C13.0883 11.5651 13.013 11.4665 12.9193 11.3874C12.8256 11.3083 12.7158 11.2506 12.5975 11.2182C12.4792 11.1859 12.3553 11.1797 12.2344 11.2002C7.34063 12.0706 3.65625 16.5383 3.65625 21.5938C3.65625 24.3537 4.75262 27.0005 6.70417 28.9521C8.65572 30.9036 11.3026 32 14.0625 32C16.8224 32 19.4693 30.9036 21.4208 28.9521C23.3724 27.0005 24.4688 24.3537 24.4688 21.5938V15.537C26.6141 16.7474 29.0367 17.3807 31.5 17.375C31.7238 17.375 31.9384 17.2861 32.0966 17.1279C32.2549 16.9696 32.3438 16.755 32.3438 16.5312V10.9062C32.3438 10.6825 32.2549 10.4679 32.0966 10.3096C31.9384 10.1514 31.7238 10.0625 31.5 10.0625Z" fill="white"/>
</svg>
