<svg width="40" height="39" viewBox="0 0 40 39" fill="none" xmlns="http://www.w3.org/2000/svg">
<path d="M36.1703 3.52752C35.8904 3.29223 35.5501 3.13582 35.1858 3.07515C34.8215 3.01449 34.4472 3.05185 34.1031 3.18323L2.43749 15.2656C1.86275 15.4839 1.37625 15.8782 1.0512 16.3893C0.726153 16.9004 0.580133 17.5005 0.635117 18.0995C0.6901 18.6985 0.943112 19.2639 1.35608 19.7105C1.76905 20.1572 2.31964 20.4611 2.92499 20.5763L10.625 22.0495V30.468C10.625 31.0754 10.8112 31.6689 11.1596 32.1724C11.5081 32.6759 12.003 33.0663 12.5807 33.2936C13.1584 33.5209 13.7926 33.5746 14.4019 33.4479C15.0111 33.3212 15.5677 33.0199 16 32.5825L19.5422 29.0009L25.3672 33.9719C25.7735 34.3203 26.2657 34.5599 26.7955 34.6672C27.3253 34.7744 27.8746 34.7457 28.3896 34.5839C28.9046 34.422 29.3677 34.1326 29.7335 33.7438C30.0994 33.3551 30.3554 32.8804 30.4765 32.3662L36.8234 5.46991C36.906 5.11884 36.8888 4.75247 36.7737 4.41021C36.6587 4.06795 36.45 3.76278 36.1703 3.52752Z" fill="white"/>
<path d="M25.8759 12.0506C26.3854 11.7417 26.9273 12.4059 26.5039 12.8204L16.0225 23.0817C15.8095 23.2902 15.457 23.2699 15.2681 23.0384L13.1369 20.426C12.948 20.1945 13.0071 19.855 13.2633 19.6996L25.8759 12.0506Z" fill="#636024"/>
</svg>
