<svg width="135" height="135" viewBox="0 0 135 135" fill="none" xmlns="http://www.w3.org/2000/svg">
<path d="M41.6191 128.328L92.1386 128.858L128.301 93.4951L128.833 42.973L93.203 6.54578L42.681 6.01349L6.52113 41.6438L5.98884 92.1658L41.6191 128.328ZM93.4704 134.975L40.2899 134.442C39.4902 134.442 38.6932 134.178 38.1609 133.645L0.934021 95.6214C0.404439 95.0892 0.139648 94.2921 0.139648 93.4951L0.66923 40.3145C0.66923 39.5175 0.934026 38.7205 1.4689 38.1883L39.4902 0.963973C40.0224 0.429096 40.8221 0.1643 41.6191 0.1643L94.7997 0.696467C95.594 0.696467 96.3937 0.963973 96.9233 1.49356L134.15 39.5175C134.683 40.0498 134.95 40.8467 134.95 41.6438L134.418 94.8243C134.418 95.6213 134.15 96.4184 133.621 96.9532L95.594 134.178C95.0644 134.71 94.2648 134.975 93.4704 134.975Z" fill="#60110A"/>
<path d="M79.6404 39.5176C79.1108 39.5176 78.8434 39.5175 78.3111 39.2501C76.7171 38.7205 76.185 36.859 76.7172 35.2623L91.609 2.29329C92.4034 0.696604 94 0.164302 95.594 0.696532C97.1907 1.49355 97.723 3.09026 97.1908 4.6843L82.3016 37.6561C82.0342 38.9853 80.7049 39.5176 79.6404 39.5176Z" fill="#60110A"/>
<path d="M54.3822 39.5176C53.053 39.5176 51.9884 38.7205 51.4562 37.6561L38.4286 4.15213C37.8937 2.55809 38.6933 0.696594 40.29 0.164364C41.884 -0.367866 43.7455 0.429098 44.2778 2.02579L57.3055 35.5298C57.8404 37.1239 57.0407 38.9854 55.444 39.5176C55.1792 39.5176 54.9118 39.5176 54.3822 39.5176Z" fill="#60110A"/>
<path d="M36.5645 53.8743C36.3023 53.8743 36.0348 53.8743 35.5026 53.6095L2.53085 42.9729C0.934159 42.4433 0.139844 40.8466 0.669426 38.9851C1.20166 37.3911 2.7983 36.5941 4.65978 37.1237L37.6315 47.7603C39.2256 48.2925 40.0226 49.8866 39.4904 51.7481C38.9608 53.0773 37.8937 53.8743 36.5645 53.8743Z" fill="#60110A"/>
<path d="M3.06294 96.6863C1.73369 96.6863 0.404428 95.8892 0.139637 94.56C-0.39524 92.9633 0.669224 91.1018 2.26326 90.837L35.7699 80.7327C37.3639 80.2004 39.2254 81.2648 39.4902 82.8589C40.0224 84.4556 38.9606 86.3144 37.364 86.5818L3.8599 96.6863C3.59511 96.4189 3.33038 96.6863 3.06294 96.6863Z" fill="#60110A"/>
<path d="M40.29 134.442C40.0225 134.442 39.4903 134.442 39.2255 134.178C37.6314 133.645 36.8318 131.784 37.6314 130.19L51.7237 96.4183C52.2532 94.8243 54.1147 94.0272 55.7114 94.8243C57.3055 95.3565 58.1025 97.218 57.3055 98.812L43.2133 132.583C42.681 133.645 41.6192 134.442 40.29 134.442Z" fill="#60110A"/>
<path d="M93.4704 134.975C92.1385 134.975 91.0742 134.178 90.5419 133.113L76.7172 98.8121C76.185 97.218 76.7171 95.3565 78.3111 94.8243C79.9078 94.2921 81.7694 94.8243 82.3016 96.4184L96.1289 130.719C96.6612 132.316 96.129 134.178 94.5323 134.71C94.2649 134.71 93.7326 134.975 93.4704 134.975Z" fill="#60110A"/>
<path d="M131.224 97.7505C130.694 97.7505 130.43 97.7505 129.898 97.483L96.1287 82.5938C94.532 81.7942 93.7324 80.2002 94.532 78.6035C95.3291 77.0094 96.9231 76.2124 98.5198 77.0094L132.553 91.6338C134.15 92.4308 134.95 94.0275 134.15 95.6216C133.62 96.9535 132.553 97.7505 131.224 97.7505Z" fill="#60110A"/>
<path d="M97.7229 53.8743C96.3936 53.8743 95.0643 53.0773 94.7995 51.7481C94.2647 50.154 95.3291 48.2925 96.9232 48.0251L131.224 38.4529C132.821 37.9207 134.682 38.9851 134.95 40.5792C135.215 42.1758 134.418 44.0373 132.821 44.3047L98.5199 53.8743C98.2525 53.8743 97.9903 53.8743 97.7229 53.8743Z" fill="#60110A"/>
<path d="M67.4098 49.0895C65.8131 49.0895 64.2191 49.3542 62.6251 49.6216C61.2932 49.8864 59.964 50.4187 58.6347 51.2184C49.5948 56.0032 46.1392 67.1719 50.924 76.2119C54.1147 82.3259 60.4988 86.049 67.4098 86.049C68.7417 86.049 70.3358 85.7841 71.6651 85.5167C73.2618 85.2519 74.591 84.7197 75.9202 83.9226C80.1728 81.5289 83.3635 77.806 84.9602 73.0212C86.5543 68.2338 86.022 63.1815 83.631 58.929C80.4402 52.8123 74.3235 49.0895 67.4098 49.0895ZM67.4098 92.1656C58.3698 92.1656 49.8622 87.1134 45.607 79.1379C39.2255 67.172 43.7455 52.2801 55.9788 45.8987C57.5728 45.099 59.4344 44.3046 61.2932 43.7697C63.4222 43.2401 65.551 42.9728 67.6746 42.9728C76.7172 42.9728 85.225 48.025 89.4801 56.0031C92.6709 61.8523 93.2032 68.5012 91.3417 74.8827C89.4802 81.2641 85.2249 86.3137 79.3757 89.507C77.5142 90.5689 75.6528 91.1012 73.5239 91.6334C71.1328 91.8982 69.2713 92.1656 67.4098 92.1656Z" fill="#60110A"/>
<path d="M67.4095 38.4531C67.1447 38.4531 67.1447 38.4531 66.8799 38.4531C59.1692 38.7205 51.9881 41.6437 46.6711 47.2282C41.3515 52.8126 38.4282 60.2585 38.693 67.9693C38.9605 81.2644 48.0004 92.6981 61.0307 95.6214C63.4218 96.1536 65.8128 96.4184 68.2092 96.4184C84.1628 96.1536 96.9232 82.8584 96.661 66.9048C96.3936 53.3449 86.8214 41.9112 73.5236 38.9853C71.4 38.7205 69.271 38.4531 67.4095 38.4531ZM67.4095 102.535C64.751 102.535 61.8252 102.27 59.4341 101.473C43.7453 97.7504 32.579 83.9229 32.3115 67.9693C32.0441 58.6619 35.5023 49.6219 42.1512 42.973C48.5327 36.3268 57.3051 32.3364 66.8799 32.0716C69.5384 32.0716 72.197 32.3363 74.8555 32.8686C82.5662 34.4653 89.4799 38.7204 94.5321 44.5697C99.5843 50.6837 102.51 58.3971 102.775 66.3726C103.04 85.7844 87.6184 101.738 68.2092 102.27C67.9418 102.535 67.6743 102.535 67.4095 102.535Z" fill="#60110A"/>
<path d="M77.5142 89.5077C77.2494 89.5077 76.982 89.5077 76.982 89.5077C75.388 89.2403 74.3234 87.6464 74.5909 85.7849C75.6527 80.9975 75.6527 73.0219 72.9942 70.6282C72.7294 70.3634 71.6649 69.2989 68.2094 70.3634C62.6249 71.9574 59.4342 70.3635 57.5728 68.7668C51.4561 63.1823 53.8498 49.3549 54.1146 47.7609C54.382 46.1642 55.9788 45.0997 57.8403 45.3672C59.4343 45.6346 60.4987 47.2287 60.2313 49.0901C59.1695 53.8749 59.1695 61.853 61.8253 64.2467C62.0928 64.5141 63.1546 65.576 66.6128 64.5142C72.1972 62.9175 75.3879 64.5142 77.2494 66.1083C83.3634 71.69 80.9723 85.5174 80.7048 87.1141C80.1726 88.4434 78.8434 89.5077 77.5142 89.5077Z" fill="#60110A"/>
<path d="M67.6745 61.5878C66.8801 61.5878 66.0805 61.323 65.5509 60.7881C65.0187 60.2585 64.7512 59.4589 64.7512 58.6619C64.7512 57.8649 65.0187 57.0678 65.5509 56.5356C66.0805 56.0033 66.8801 55.7386 67.6745 55.7386C68.4742 55.7386 69.2712 56.0033 69.8035 56.5356C70.3357 57.0678 70.6005 57.8649 70.6005 58.6619C70.6005 59.4589 70.3357 60.2585 69.8035 60.7881C69.2712 61.323 68.4742 61.5878 67.6745 61.5878Z" fill="#60110A"/>
<path d="M66.3479 79.6682C65.5509 79.6682 64.7512 79.4034 64.219 78.8712C63.6894 78.3389 63.4219 77.542 63.4219 76.7449C63.4219 75.9453 63.6894 75.1482 64.219 74.616C64.7512 74.0838 65.5509 73.8189 66.3479 73.8189C67.1449 73.8189 67.9419 74.0838 68.4741 74.616C69.0037 75.1482 69.2712 75.9453 69.2712 76.7449C69.2712 77.542 69.0037 78.3389 68.4741 78.8712C68.2093 79.4034 67.4097 79.6682 66.3479 79.6682Z" fill="#60110A"/>
</svg>
