<svg width="135" height="165" viewBox="0 0 135 165" fill="none" xmlns="http://www.w3.org/2000/svg">
<path d="M35.1776 157.854H99.5215C117.261 148.229 128.086 130.794 128.086 112.751C128.086 94.7134 117.261 77.272 99.5215 67.6532H35.1776C17.4354 77.5729 6.61303 94.4099 6.61303 112.751C6.61303 131.091 17.4354 147.931 35.1776 157.854ZM100.12 164.767C99.8224 164.767 99.5215 164.767 98.9197 164.469H34.275C33.6763 164.469 33.0745 164.469 32.7706 164.166C22.8509 159.054 14.7306 151.538 9.01709 142.515C3.0057 133.498 0 122.974 0 112.148C0 101.327 3.0057 91.1027 9.01709 81.7821C14.7306 73.0629 22.8509 65.5472 32.7706 60.1345C33.3724 59.8337 33.9742 59.8337 34.275 59.8337H98.9197C99.8223 59.5328 100.722 59.5328 101.625 60.1345C111.547 65.2463 119.966 72.762 125.679 81.7821C131.693 91.1027 135 101.628 135 112.148C135 122.673 131.693 133.498 125.679 142.515C119.966 151.238 111.547 158.756 101.625 164.166C101.026 164.767 100.722 164.767 100.12 164.767Z" fill="#60110A"/>
<path d="M120.868 88.0974H12.9279C11.1227 88.0974 9.32056 86.5931 9.32056 84.49C9.32056 82.6818 10.8219 80.8796 12.9279 80.8796H120.868C122.673 80.8796 124.475 82.3839 124.475 84.49C124.475 86.5931 122.974 88.0974 120.868 88.0974Z" fill="#60110A"/>
<path d="M120.868 144.02H12.9279C11.1227 144.02 9.32056 142.515 9.32056 140.412C9.32056 138.61 10.8219 136.805 12.9279 136.805H120.868C122.673 136.805 124.475 138.306 124.475 140.412C124.475 142.515 122.974 144.02 120.868 144.02Z" fill="#60110A"/>
<path d="M40.8912 77.8738C39.9886 77.8738 39.086 77.5729 38.4842 76.9712C37.8855 76.3694 37.5815 75.4698 37.5815 74.5672C37.5815 73.6646 37.8855 72.762 38.4842 72.1603C39.086 71.5585 39.9886 71.2577 40.8912 71.2577C41.7908 71.2577 42.6934 71.5585 43.2951 72.1603C43.8968 72.762 44.1976 73.6646 44.1976 74.5672C44.1976 75.4698 43.8968 76.3694 43.2951 76.9712C42.6934 77.272 41.7908 77.8738 40.8912 77.8738Z" fill="#60110A"/>
<path d="M54.7193 77.8738C53.8167 77.8738 52.917 77.5729 52.3153 76.9712C51.7135 76.3694 51.4158 75.4698 51.4158 74.5672C51.4158 73.6646 51.7135 72.762 52.3153 72.1603C52.917 71.5585 53.8167 71.2577 54.7193 71.2577C55.6249 71.2577 56.5275 71.5585 57.1263 72.1603C57.728 72.762 58.0259 73.6646 58.0259 74.5672C58.0259 75.4698 57.728 76.3694 57.1263 76.9712C56.5275 77.272 55.6249 77.8738 54.7193 77.8738Z" fill="#60110A"/>
<path d="M68.8505 77.8738C67.9509 77.8738 67.0484 77.5729 66.4466 76.9712C65.8449 76.3694 65.5439 75.4698 65.5439 74.5672C65.5439 73.6646 65.8449 72.762 66.4466 72.1603C67.0484 71.5585 67.9509 71.2577 68.8505 71.2577C69.7531 71.2577 70.6558 71.5585 71.2575 72.1603C71.8592 72.762 72.16 73.6646 72.16 74.5672C72.16 75.4698 71.8592 76.3694 71.2575 76.9712C70.6558 77.272 69.7531 77.8738 68.8505 77.8738Z" fill="#60110A"/>
<path d="M82.685 77.8738C81.7824 77.8738 80.8798 77.5729 80.278 76.9712C79.6763 76.3694 79.3755 75.4698 79.3755 74.5672C79.3755 73.6646 79.6763 72.762 80.278 72.1603C80.8798 71.5585 81.7824 71.2577 82.685 71.2577C83.5876 71.2577 84.4872 71.5585 85.0889 72.1603C85.6906 72.762 85.9916 73.6646 85.9916 74.5672C85.9916 75.4698 85.6906 76.3694 85.0889 76.9712C84.4872 77.272 83.5876 77.8738 82.685 77.8738Z" fill="#60110A"/>
<path d="M96.5124 77.8738C95.6128 77.8738 94.7102 77.5729 94.1085 76.9712C93.5097 76.3694 93.2058 75.4698 93.2058 74.5672C93.2058 73.6646 93.5097 72.762 94.1085 72.1603C94.7102 71.5585 95.6128 71.2577 96.5124 71.2577C97.415 71.2577 98.3176 71.5585 98.9194 72.1603C99.5211 72.762 99.822 73.6646 99.822 74.5672C99.822 75.4698 99.5211 76.3694 98.9194 76.9712C98.3176 77.272 97.415 77.8738 96.5124 77.8738Z" fill="#60110A"/>
<path d="M40.8912 154.544C39.9886 154.544 39.086 154.244 38.4842 153.644C37.8855 153.043 37.5815 152.14 37.5815 151.238C37.5815 150.335 37.8855 149.436 38.4842 148.83C39.086 148.229 39.9886 147.931 40.8912 147.931C41.7908 147.931 42.6934 148.229 43.2951 148.83C43.8968 149.436 44.1976 150.335 44.1976 151.238C44.1976 152.14 43.8968 153.043 43.2951 153.644C42.6934 153.942 41.7908 154.544 40.8912 154.544Z" fill="#60110A"/>
<path d="M54.7193 154.544C53.8167 154.544 52.917 154.244 52.3153 153.644C51.7135 153.043 51.4158 152.14 51.4158 151.238C51.4158 150.335 51.7135 149.436 52.3153 148.83C52.917 148.229 53.8167 147.931 54.7193 147.931C55.6249 147.931 56.5275 148.229 57.1263 148.83C57.728 149.436 58.0259 150.335 58.0259 151.238C58.0259 152.14 57.728 153.043 57.1263 153.644C56.5275 153.942 55.6249 154.544 54.7193 154.544Z" fill="#60110A"/>
<path d="M68.8505 154.544C67.9509 154.544 67.0484 154.244 66.4466 153.644C65.8449 153.043 65.5439 152.14 65.5439 151.238C65.5439 150.335 65.8449 149.436 66.4466 148.83C67.0484 148.229 67.9509 147.931 68.8505 147.931C69.7531 147.931 70.6558 148.229 71.2575 148.83C71.8592 149.436 72.16 150.335 72.16 151.238C72.16 152.14 71.8592 153.043 71.2575 153.644C70.6558 153.942 69.7531 154.544 68.8505 154.544Z" fill="#60110A"/>
<path d="M82.685 154.544C81.7824 154.544 80.8798 154.244 80.278 153.644C79.6763 153.043 79.3755 152.14 79.3755 151.238C79.3755 150.335 79.6763 149.436 80.278 148.83C80.8798 148.229 81.7824 147.931 82.685 147.931C83.5876 147.931 84.4872 148.229 85.0889 148.83C85.6906 149.436 85.9916 150.335 85.9916 151.238C85.9916 152.14 85.6906 153.043 85.0889 153.644C84.4872 153.942 83.5876 154.544 82.685 154.544Z" fill="#60110A"/>
<path d="M96.5124 154.544C95.6128 154.544 94.7102 154.244 94.1085 153.644C93.5097 153.043 93.2058 152.14 93.2058 151.238C93.2058 150.335 93.5097 149.436 94.1085 148.83C94.7102 148.229 95.6128 147.931 96.5124 147.931C97.415 147.931 98.3176 148.229 98.9194 148.83C99.5211 149.436 99.822 150.335 99.822 151.238C99.822 152.14 99.5211 153.043 98.9194 153.644C98.3176 153.942 97.415 154.544 96.5124 154.544Z" fill="#60110A"/>
<path d="M27.659 24.9571L50.8138 48.106C51.7135 49.0086 52.0143 50.2121 51.7135 51.4126C51.1117 53.8195 51.7133 56.5244 53.5185 58.0287C54.719 59.2322 56.5273 60.1348 58.3295 60.1348C60.1318 60.1348 61.9369 59.533 63.1374 58.0287C65.8452 55.3239 65.8452 50.8138 63.1374 48.106C61.9369 46.9055 60.1318 46.003 58.3295 46.003C57.7278 46.003 57.126 46.003 56.5272 46.3038C55.3208 46.6047 54.1203 46.3038 53.2177 45.4012L30.0658 22.2493L27.659 24.9571ZM58.3295 67.3496C54.7191 67.3496 51.1117 65.8453 48.4069 63.1404C45.3982 60.1348 43.8967 55.9256 44.4955 51.7164L20.1431 27.3611C18.6418 25.8567 18.6418 23.7507 20.1431 22.5502L27.659 15.0315C29.1633 13.5301 31.2693 13.5301 32.4698 15.0315L56.8251 39.3868C57.4269 39.3868 57.7278 39.3868 58.3295 39.3868C61.937 39.3868 65.5443 40.8912 68.2521 43.596C73.6617 49.0086 73.6617 57.7278 68.2521 63.4413C65.5443 65.8453 61.937 67.3496 58.3295 67.3496Z" fill="#60110A"/>
<path d="M87.1917 33.9772C85.0887 33.9772 83.2835 34.8797 82.083 36.3781C80.8795 37.8825 80.2778 39.6877 80.2778 41.4929C80.2778 43.2981 81.1804 45.1003 82.6847 46.3038C83.8852 47.5073 85.6904 48.106 87.1917 48.106C89.3008 48.106 91.1031 47.2034 92.3036 45.702C93.8079 43.8968 94.4096 41.192 93.51 38.7851C93.2061 37.5846 93.51 36.3781 94.1088 35.4785L115.756 10.8223L113.051 8.41833L91.4039 33.0716C90.5013 33.9772 89.3009 34.5759 88.0944 34.2751C88.0944 33.9772 87.7965 33.9772 87.1917 33.9772ZM87.1917 55.0229C83.8852 55.0229 80.5787 53.8195 78.1718 51.7164C75.4669 49.3095 73.6617 46.0029 73.3638 42.0916C73.06 38.4872 74.2664 34.8797 76.6704 31.8711C79.3752 28.5615 83.5874 27.0602 87.7965 27.0602L110.347 1.20349C110.945 0.601752 111.848 5.83852e-06 112.751 5.83852e-06C113.65 5.83852e-06 114.556 0.300879 115.155 0.899634L122.974 7.81957C124.475 9.02006 124.476 11.427 123.275 12.6275L100.722 38.4872C101.327 42.6963 100.424 46.9055 97.4154 50.2121C95.3123 53.2178 91.4039 55.0229 87.1917 55.0229Z" fill="#60110A"/>
</svg>
