<svg width="29" height="29" viewBox="0 0 29 29" fill="none" xmlns="http://www.w3.org/2000/svg">
<path d="M25.375 5.4375H3.625C3.38465 5.4375 3.15414 5.53298 2.98418 5.70293C2.81423 5.87289 2.71875 6.1034 2.71875 6.34375V21.75C2.71875 22.2307 2.90971 22.6917 3.24962 23.0316C3.58953 23.3715 4.05055 23.5625 4.53125 23.5625H24.4688C24.9495 23.5625 25.4105 23.3715 25.7504 23.0316C26.0903 22.6917 26.2812 22.2307 26.2812 21.75V6.34375C26.2812 6.1034 26.1858 5.87289 26.0158 5.70293C25.8459 5.53298 25.6154 5.4375 25.375 5.4375ZM14.5 15.0834L5.9552 7.25H23.0448L14.5 15.0834ZM11.182 14.5L4.53125 20.5957V8.40434L11.182 14.5ZM12.5232 15.7291L13.8826 16.9809C14.0498 17.1343 14.2685 17.2195 14.4955 17.2195C14.7224 17.2195 14.9411 17.1343 15.1083 16.9809L16.4677 15.7291L23.038 21.75H5.9552L12.5232 15.7291ZM17.818 14.5L24.4688 8.4032V20.5968L17.818 14.5Z" fill="black"/>
</svg>
