<svg width="70" height="73" viewBox="0 0 70 73" fill="none" xmlns="http://www.w3.org/2000/svg">
<path d="M34.0823 50.9697C33.6796 50.9697 33.1396 50.7048 32.8716 50.3074L6.35826 16.6815C5.82093 16.0205 5.9556 15.0932 6.6276 14.5633C7.30093 14.0334 8.24229 14.1671 8.78229 14.8282L35.2943 48.5865C35.8329 49.2489 35.6969 50.1762 35.0249 50.7048C34.7556 50.9697 34.4863 50.9697 34.0823 50.9697Z" fill="#636024"/>
<path d="M39.7357 69.3716C38.9277 69.3716 38.1211 68.7105 38.1211 67.7832V58.6491C38.1211 57.853 38.7944 57.0595 39.7357 57.0595C40.6771 57.0595 41.3504 57.7218 41.3504 58.6491V67.7832C41.2157 68.7105 40.5424 69.3716 39.7357 69.3716Z" fill="#636024"/>
<path d="M35.0252 72.5483C34.2172 72.5483 33.4092 71.886 33.4092 70.96V60.2375C33.4092 59.4427 34.0825 58.6492 35.0252 58.6492C35.8332 58.6492 36.6398 59.3102 36.6398 60.2375V70.96C36.6398 71.7548 35.8332 72.5483 35.0252 72.5483Z" fill="#636024"/>
<path d="M30.3144 69.3716C29.5077 69.3716 28.6997 68.7105 28.6997 67.7832V60.1037C28.6997 59.3102 29.3717 58.5153 30.3144 58.5153C31.1224 58.5153 31.929 59.1777 31.929 60.1037V67.7832C31.929 68.7105 31.257 69.3716 30.3144 69.3716Z" fill="#636024"/>
<path d="M28.1611 55.0735C29.3717 57.3242 32.4677 58.7801 35.0251 58.7801C37.5811 58.7801 39.7357 57.3242 40.8117 55.206L34.0824 51.3669L28.1611 55.0735ZM35.0251 61.8257C30.9877 61.8257 26.009 59.1775 24.7957 54.9423C24.6624 54.28 24.9317 53.6176 25.4691 53.2202L33.2757 48.3226C33.8131 48.0577 34.3518 48.0577 34.8904 48.3226L43.6371 53.2202C44.3104 53.6176 44.5798 54.28 44.3104 54.9423C43.0998 58.9126 39.3317 61.8257 35.0251 61.8257Z" fill="#636024"/>
<path d="M35.025 31.1116C40.677 31.1116 45.925 33.6273 49.425 37.7301L66.6503 25.9478C62.345 12.4447 49.5597 3.04572 35.025 3.04572C20.625 3.04572 7.70501 12.3136 3.39968 25.8153L20.625 37.5989C24.125 33.4948 29.5077 31.1116 35.025 31.1116ZM49.1557 41.438C48.6183 41.438 48.2143 41.1717 47.809 40.7756C44.8503 36.6716 40.1383 34.1572 35.025 34.1572C29.9103 34.1572 25.1997 36.5391 22.2397 40.6431C21.701 41.3055 20.7597 41.5705 20.0863 41.0406L0.707687 27.8011C0.16902 27.4037 -0.100352 26.744 0.0343146 26.0816C2.18631 18.5346 6.6277 12.0473 13.0877 7.28224C19.413 2.51583 26.9503 0.000156403 35.025 0.000156403C42.965 0.000156403 50.6357 2.51583 56.961 7.28224C63.2877 12.0473 67.8623 18.5346 69.881 26.2128C70.0157 26.8751 69.7464 27.5375 69.2077 27.9349L49.829 41.1717C49.693 41.3055 49.425 41.438 49.1557 41.438Z" fill="#636024"/>
<path d="M23.1824 39.5849L34.2171 47.6605L46.8677 39.4524C43.9064 36.1432 39.6011 34.1575 35.0251 34.1575C30.4491 34.1575 26.1424 36.1432 23.1824 39.5849ZM34.0824 50.9697C33.8131 50.9697 33.409 50.8373 33.1397 50.7048L20.0864 41.0408C19.4131 40.5122 19.2797 39.5849 19.6837 38.9226C23.1824 34.0237 28.9677 31.1119 35.0251 31.1119C41.0811 31.1119 46.8677 34.0237 50.3664 39.055C50.6357 39.4525 50.6357 39.8499 50.6357 40.246C50.5024 40.6434 50.3664 41.0408 49.9624 41.172L34.8904 50.8373C34.6211 50.9697 34.3518 50.9697 34.0824 50.9697Z" fill="#636024"/>
<path d="M34.0822 50.9697C33.6796 50.9697 33.4089 50.8372 33.1395 50.5723C32.4675 50.0424 32.3329 49.1164 32.8716 48.4541L60.8635 14.6957C61.4035 14.0333 62.3449 13.9022 63.0169 14.4308C63.6902 14.9607 63.8249 15.8867 63.2862 16.549L35.2942 50.4398C35.0249 50.8372 34.4862 50.9697 34.0822 50.9697Z" fill="#636024"/>
<path d="M34.0826 50.9697C33.9492 50.9697 33.9492 50.9697 33.8132 50.9697C33.1399 50.8373 32.6025 50.1762 32.6025 49.5139V1.98748C32.6025 1.19264 33.2759 0.397816 34.2172 0.397816C35.0252 0.397816 35.8332 1.05885 35.8332 1.98748V41.4382L49.9625 6.09021C50.2332 5.29668 51.1745 4.89926 51.9812 5.16289C52.7905 5.42915 53.1932 6.35648 52.9239 7.15001L35.5639 50.0424C35.2945 50.7048 34.7559 50.9697 34.0826 50.9697Z" fill="#636024"/>
<path d="M34.0822 50.9697C33.4089 50.9697 32.8715 50.5723 32.6022 50.0424L15.5115 7.15001C15.2408 6.35648 15.6448 5.42915 16.4528 5.16289C17.2595 4.89926 18.2022 5.29668 18.4715 6.09021L32.6022 41.4382V1.98748C32.6022 1.19264 33.2755 0.397816 34.2168 0.397816C35.0248 0.397816 35.8329 1.05885 35.8329 1.98748V49.5139C35.8329 50.3074 35.2942 50.8373 34.6209 50.9697C34.2169 50.9697 34.2169 50.9697 34.0822 50.9697Z" fill="#636024"/>
</svg>
