<svg width="133" height="130" viewBox="0 0 133 130" fill="none" xmlns="http://www.w3.org/2000/svg">
<path d="M21.8372 43.256H111.155V35.0718C111.155 34.3699 111.389 33.9043 111.623 33.4363L124.716 16.1343H78.6541V29.6952C78.6541 31.0967 77.4843 32.5005 75.8489 32.5005H56.9091C55.5053 32.5005 54.1038 31.3329 54.1038 29.6952V16.1343H8.27635L21.3692 33.4363C21.8372 33.9043 21.8372 34.3699 21.8372 35.0718V43.256ZM113.96 48.8666H19.0296C17.6281 48.8666 16.2243 47.6991 16.2243 46.0613V36.2416L0.560057 15.1985C-0.141844 14.2649 -0.14179 13.3267 0.326144 12.3932C0.794079 11.4573 1.72991 10.9894 2.66346 10.9894H56.9091C58.3106 10.9894 59.7144 12.1569 59.7144 13.7947V27.3578H73.2753V13.7947C73.2753 12.3932 74.4451 10.9894 76.0805 10.9894H130.326C131.264 10.9894 132.198 11.4573 132.666 12.3932C133.131 13.3267 133.131 14.4966 132.43 15.1985L116.768 36.2416V46.0613C116.531 47.4651 115.362 48.8666 113.96 48.8666Z" fill="#60110A"/>
<path d="M59.7145 27.1217H73.2753V5.37896H59.7145V27.1217ZM76.0806 32.5006H57.1431C55.7393 32.5006 54.3379 31.3331 54.3379 29.6953V2.8053C54.3379 1.40381 55.5054 1.52588e-05 57.1431 1.52588e-05H76.0806C77.4844 1.52588e-05 78.8882 1.16985 78.8882 2.8053V29.9293C78.6543 31.3331 77.4844 32.5006 76.0806 32.5006Z" fill="#60110A"/>
<path d="M21.837 54.2457H111.155V48.8668H21.837V54.2457ZM113.96 59.6246H19.0294C17.6279 59.6246 16.2241 58.4548 16.2241 56.8193V46.0615C16.2241 44.66 17.3939 43.2562 19.0294 43.2562H113.726C115.13 43.2562 116.531 44.4261 116.531 46.0615V56.8193C116.531 58.4548 115.361 59.6246 113.96 59.6246Z" fill="#60110A"/>
<path d="M95.0202 124.623H105.778V59.6245H95.0202V124.623ZM108.583 130H92.4489C91.0451 130 89.6436 128.834 89.6436 127.195V56.8192C89.6436 55.4131 90.8135 54.0116 92.4489 54.0116H108.583C109.985 54.0116 111.389 55.1815 111.389 56.8192V127.195C111.155 128.834 109.985 130 108.583 130Z" fill="#60110A"/>
<path d="M27.214 124.623H37.9696V59.6245H27.214V124.623ZM40.7772 130H24.6427C23.2389 130 21.8374 128.834 21.8374 127.195V56.8192C21.8374 55.4131 23.0072 54.0116 24.6427 54.0116H40.7772C42.1787 54.0116 43.5825 55.1815 43.5825 56.8192V127.195C43.5825 128.834 42.1787 130 40.7772 130Z" fill="#60110A"/>
<path d="M121.91 75.7565H11.0817C9.67794 75.7565 8.27637 74.5892 8.27637 72.9486C8.27637 71.5469 9.44397 70.1461 11.0817 70.1461H122.144C123.548 70.1461 124.95 71.3136 124.95 72.9486C124.716 74.5892 123.548 75.7565 121.91 75.7565Z" fill="#60110A"/>
<path d="M121.91 86.7462H11.0817C9.67794 86.7462 8.27637 85.5761 8.27637 83.9409C8.27637 82.5366 9.44397 81.1349 11.0817 81.1349H122.144C123.548 81.1349 124.95 82.3031 124.95 83.9409C124.716 85.3417 123.548 86.7462 121.91 86.7462Z" fill="#60110A"/>
<path d="M113.96 37.8794H84.0308C82.627 37.8794 81.2256 36.7096 81.2256 35.0718C81.2256 33.668 82.3954 32.2665 84.0308 32.2665H113.726C115.13 32.2665 116.531 33.4363 116.531 35.0718C116.531 36.7096 115.362 37.8794 113.96 37.8794Z" fill="#60110A"/>
<path d="M48.9587 37.8794H19.0294C17.6279 37.8794 16.2241 36.7096 16.2241 35.0718C16.2241 33.668 17.3939 32.2665 19.0294 32.2665H48.9587C50.3625 32.2665 51.7639 33.4363 51.7639 35.0718C51.5323 36.7096 50.3625 37.8794 48.9587 37.8794Z" fill="#60110A"/>
</svg>
