<svg width="135" height="130" viewBox="0 0 135 130" fill="none" xmlns="http://www.w3.org/2000/svg">
<path d="M99.111 46.8221C97.684 46.8221 96.2594 45.6329 96.2594 43.9704V16.4009H38.5028V38.5027C38.5028 39.9297 37.3153 41.3543 35.6514 41.3543C34.2246 41.3543 32.7991 40.1652 32.7991 38.5027V13.7848C32.7991 12.3602 33.9875 10.9308 35.6514 10.9308H98.8731C100.3 10.9308 101.725 12.12 101.725 13.7848V43.9704C101.963 45.6329 100.773 46.8221 99.111 46.8221Z" fill="#60110A"/>
<path d="M65.1226 29.4699C43.9702 29.4699 26.6197 46.8221 26.6197 67.9749C26.6197 89.128 43.9702 106.479 65.1226 106.479C72.7282 106.479 79.8584 104.339 86.0373 100.298L75.5821 89.8407C72.966 89.6034 70.5901 88.6523 68.6874 86.752C67.4994 86.9894 66.311 86.9894 65.1226 86.9894C54.4268 86.9894 45.8715 78.4322 45.8715 67.7371C45.8715 57.0418 54.4268 48.4869 65.1226 48.4869C75.8176 48.4869 84.3748 57.0418 84.3748 67.7371C84.3748 68.9239 84.3748 69.8776 84.137 70.8265C86.0373 72.7263 87.2264 75.3425 87.2264 77.9565L97.4461 88.1759C101.487 81.9973 103.39 74.8668 103.39 67.4992C103.627 46.5843 86.2775 29.4699 65.1226 29.4699ZM65.1226 111.945C40.8796 111.945 21.1531 92.2167 21.1531 67.9749C21.1531 43.7327 40.8796 24.0045 65.1226 24.0045C89.3669 24.0045 109.093 43.7327 109.093 67.9749C109.093 77.721 106.003 86.752 100.062 94.5952C99.5866 95.3064 98.8731 95.5463 98.1596 95.7846C97.4461 95.7846 96.4948 95.5463 96.0215 95.0709L82.4722 81.5218C81.9989 81.0481 81.5208 80.0951 81.761 79.3832C81.761 77.721 81.2854 76.2945 80.0962 75.1051C79.8584 74.8668 79.6206 74.6295 79.3827 74.394C78.4314 73.6803 77.9581 72.4909 78.196 71.5398C78.4314 70.3532 78.6716 69.1641 78.6716 67.9749C78.6716 60.369 72.4904 54.1878 64.8845 54.1878C57.2803 54.1878 51.0997 60.369 51.0997 67.9749C51.0997 75.5805 57.2803 81.7592 64.8845 81.7592C66.0736 81.7592 67.4994 81.5218 68.6874 81.2835C69.8766 81.0481 71.0657 81.2835 71.7769 82.2356C72.0147 82.4729 72.2525 82.7112 72.2525 82.9484C73.4417 84.1359 74.8687 84.6115 76.5311 84.6115C77.2446 84.6115 78.1959 84.8489 78.6716 85.3243L92.2185 98.8717C92.6942 99.3471 93.1675 100.298 92.932 101.012C92.932 101.726 92.4564 102.439 91.9807 102.915C84.137 108.854 74.8687 111.945 65.1226 111.945Z" fill="#60110A"/>
<path d="M65.1232 54.1878C57.5171 54.1878 51.3387 60.3691 51.3387 67.9749C51.3387 75.5806 57.5171 81.7592 65.1232 81.7592C65.3615 81.7592 65.5998 81.7592 65.5998 81.7592C64.6487 78.1948 65.5998 74.1541 68.4502 71.3015C70.5907 69.1641 73.2045 67.9749 76.2939 67.9749C77.2452 67.9749 77.9587 67.9749 78.91 68.2128V67.9749C78.6722 60.3691 72.7288 54.1878 65.1232 54.1878ZM65.1232 87.2274C54.4274 87.2274 45.8721 78.6703 45.8721 67.9749C45.8721 57.2796 54.4274 48.7224 65.1232 48.7224C75.8183 48.7224 84.3755 57.2796 84.3755 67.9749C84.3755 69.6397 84.1376 71.3015 83.662 72.9666C83.4241 73.9158 82.7106 74.6295 81.9995 74.8668C81.0482 75.1051 80.0968 75.1051 79.3834 74.6295C78.432 73.9158 77.4831 73.6803 76.2939 73.6803C74.8693 73.6803 73.4423 74.1541 72.491 75.3425C70.5907 77.2428 70.3529 80.3353 72.0153 82.473C72.491 83.1867 72.7288 84.1359 72.491 85.0888C72.2532 86.0383 71.542 86.5137 70.5907 86.752C68.688 86.9894 66.7873 87.2274 65.1232 87.2274Z" fill="#60110A"/>
<path d="M34.7009 70.5885C33.2751 70.5885 31.8486 69.3994 31.8486 67.7369C31.8486 49.4357 46.5852 34.6997 64.8852 34.6997C66.3117 34.6997 67.7368 35.8888 67.7368 37.5513C67.7368 39.2161 66.55 40.4052 64.8852 40.4052C49.6749 40.4052 37.3159 52.763 37.3159 67.9748C37.5533 69.3994 36.3648 70.5885 34.7009 70.5885Z" fill="#60110A"/>
<path d="M81.7612 88.4167L105.29 111.945C105.766 112.421 106.479 112.659 107.193 112.659C107.906 112.659 108.617 112.421 109.093 111.945C110.282 110.756 110.282 109.094 109.093 108.143L85.5641 84.6114C85.0885 85.3242 84.6128 86.0382 83.8993 86.7519C83.4237 87.4628 82.7102 87.9385 81.7612 88.4167ZM107.428 118.362C105.29 118.362 103.152 117.411 101.487 115.986L74.8688 89.1279C74.1554 88.4167 73.9175 87.2273 74.1553 86.2762C74.631 85.3242 75.5823 84.6114 76.5313 84.6114C77.9583 84.6114 79.1451 83.9003 80.0964 82.9483C81.0477 81.9972 81.521 80.808 81.7612 79.3832C81.7612 78.1947 82.4724 77.2427 83.4237 77.0072C84.375 76.5316 85.5642 76.767 86.2776 77.7209L113.134 104.577C116.461 107.904 116.461 113.134 113.134 116.224C111.707 117.411 109.569 118.362 107.428 118.362Z" fill="#60110A"/>
<path d="M76.2935 73.4403C74.8689 73.4403 73.4419 73.9157 72.4906 75.1051C70.5903 77.0073 70.3524 80.0951 72.0149 82.2355C72.2527 82.4729 72.4906 82.7112 72.4906 82.9483C73.6797 84.1358 75.1043 84.6115 76.7692 84.6115C78.1961 84.6115 79.3829 83.9004 80.3343 82.9483C81.2856 81.9973 81.7612 80.8081 81.9991 79.3832C81.9991 77.721 81.5234 76.2945 80.3343 75.1051C80.0964 74.8668 79.8586 74.6294 79.6208 74.394C78.4316 73.6802 77.4826 73.4403 76.2935 73.4403ZM76.2935 89.8407C73.4419 89.8407 70.5903 88.6523 68.4498 86.5137C67.9765 86.0383 67.7363 85.5626 67.2623 85.3243C63.9353 80.8081 64.41 74.8668 68.4498 71.0643C70.5903 68.9239 73.204 67.7371 76.2935 67.7371C78.6718 67.7371 80.8099 68.4506 82.4724 69.6397C82.948 70.113 83.4237 70.3532 83.8994 70.8265C86.0375 72.9665 87.2266 76.0562 86.9888 79.1459C86.751 81.7592 85.7997 84.376 83.8994 86.2763C81.9991 88.1759 79.3829 89.3651 76.7692 89.3651C76.7692 89.8407 76.5313 89.8407 76.2935 89.8407Z" fill="#60110A"/>
<path d="M123.829 123.829H129.297V12.1199C129.297 8.55719 126.445 5.46539 122.64 5.46539H12.1213C8.55624 5.46539 5.46657 8.317 5.46657 12.1199V123.829H10.932V23.0555C10.932 16.4009 16.3995 10.9308 23.0545 10.9308H111.707C118.364 10.9308 123.829 16.4009 123.829 23.0555V123.829ZM132.148 129.295H121.215C119.788 129.295 118.364 128.105 118.364 126.443V23.0555C118.364 19.488 115.512 16.4009 111.707 16.4009H23.2928C19.7265 16.4009 16.6378 19.2525 16.6378 23.0555V126.682C16.6378 128.105 15.4484 129.535 13.7855 129.535H2.85137C1.42556 129.535 0 128.346 0 126.682V12.1199C0 5.46539 5.46656 1.02091e-06 12.1213 1.02091e-06H122.878C129.535 1.02091e-06 135 5.46539 135 12.1199V126.682C135 128.105 133.813 129.295 132.148 129.295Z" fill="#60110A"/>
</svg>
