<svg width="49" height="76" viewBox="0 0 49 76" fill="none" xmlns="http://www.w3.org/2000/svg">
<path d="M13.0547 51.092H35.5294C41.5854 47.4811 45.3533 40.9271 45.3533 34.1054C45.3533 27.2851 41.5854 20.7311 35.5294 17.1202H13.0547C6.86402 20.8649 3.23066 27.1499 3.23066 34.1054C3.23066 41.0596 6.86402 47.4811 13.0547 51.092ZM35.7973 54.3027C35.664 54.3027 35.5293 54.3027 35.3947 54.3027H12.516C12.2467 54.3027 11.9773 54.1676 11.708 54.0337C8.20934 52.0288 5.24933 49.0858 3.23066 45.7425C1.07733 42.2654 0 38.2517 0 34.1054C0 29.9591 1.07733 25.9467 3.23066 22.4696C5.24933 19.1264 8.20934 16.1833 11.708 14.1771C11.9773 14.0433 12.2467 13.9094 12.516 13.9094H35.26C35.664 13.7769 36.0666 13.7769 36.4706 14.0433C39.9693 16.0495 42.9306 18.9926 45.084 22.3358C47.2373 25.8142 48.3146 29.9591 48.3146 33.9729C48.3146 38.1192 47.2373 42.1303 45.084 45.6087C43.0653 49.0858 40.1053 51.8937 36.4706 53.9012C36.3373 54.3027 36.0667 54.3027 35.7973 54.3027Z" fill="#5C0F07"/>
<path d="M18.0334 51.092H30.4147C33.78 47.3472 35.9334 40.9271 35.9334 34.1054C35.9334 27.2851 33.78 20.7311 30.4147 17.1202H18.0334C14.6694 20.8649 12.516 27.2851 12.516 34.1054C12.516 40.9271 14.6694 47.4811 18.0334 51.092ZM30.9534 54.3027C30.8187 54.3027 30.684 54.3027 30.5494 54.3027H17.3614C16.9574 54.3027 16.5533 54.1676 16.284 53.9012C11.9774 49.6198 9.42139 42.2654 9.42139 34.2392C9.42139 26.2144 11.9774 18.8587 16.284 14.5786C16.5533 14.3109 16.9574 14.1771 17.3614 14.1771H30.5494C31.088 14.0433 31.6254 14.1771 32.0294 14.5786C36.3374 18.8587 39.028 26.2144 39.028 34.3744C39.028 42.5318 36.4707 49.8888 32.0294 54.1676C31.7614 54.1676 31.3574 54.3027 30.9534 54.3027Z" fill="#5C0F07"/>
<path d="M13.996 13.9094H34.3173V9.22908H13.996V13.9094ZM35.7973 17.1201H12.3812C11.5732 17.1201 10.7666 16.451 10.7666 15.5141V7.75823C10.7666 6.95389 11.4399 6.15218 12.3812 6.15218H35.7973C36.6066 6.15218 37.4133 6.82138 37.4133 7.75823V15.5141C37.2786 16.3171 36.6066 17.1201 35.7973 17.1201Z" fill="#5C0F07"/>
<path d="M13.996 58.8492H34.3173V54.1676H13.996V58.8492ZM35.7973 62.0586H12.3812C11.5732 62.0586 10.7666 61.3907 10.7666 60.4539V52.6967C10.7666 51.8937 11.4399 51.092 12.3812 51.092H35.7973C36.6066 51.092 37.4133 51.7612 37.4133 52.6967V60.4539C37.2786 61.2569 36.6066 62.0586 35.7973 62.0586Z" fill="#5C0F07"/>
<path d="M21.6677 9.36328C20.8597 9.36328 20.0518 8.69412 20.0518 7.75859V1.60479C20.0518 0.803101 20.725 7.05719e-05 21.6677 7.05719e-05C22.4744 7.05719e-05 23.2824 0.669265 23.2824 1.60479V7.75859C23.2824 8.69412 22.609 9.36328 21.6677 9.36328Z" fill="#5C0F07"/>
<path d="M26.3773 9.36328C25.5707 9.36328 24.7627 8.69412 24.7627 7.75859V1.60479C24.7627 0.803101 25.436 7.05719e-05 26.3773 7.05719e-05C27.32 7.05719e-05 27.9934 0.669265 27.9934 1.60479V7.75859C27.9934 8.69412 27.32 9.36328 26.3773 9.36328Z" fill="#5C0F07"/>
<path d="M18.9762 69.6832H29.0695C28.5309 68.7463 27.4535 68.0785 26.3775 68.0785H21.6682C20.5908 68.2123 19.5135 68.8815 18.9762 69.6832ZM31.0882 72.8926H17.0922C16.2842 72.8926 15.4775 72.2247 15.4775 71.2879C15.4775 67.8108 18.3028 65.1354 21.6682 65.1354H26.3775C29.7415 65.1354 32.5682 67.8108 32.5682 71.154V71.2879C32.7028 72.0896 31.8962 72.8926 31.0882 72.8926Z" fill="#5C0F07"/>
<path d="M26.3773 75.9697C25.5707 75.9697 24.7627 75.3005 24.7627 74.3637V71.2881C24.7627 70.4851 25.436 69.6834 26.3773 69.6834C27.32 69.6834 27.9934 70.3526 27.9934 71.2881V74.3637C27.9934 75.3005 27.32 75.9697 26.3773 75.9697Z" fill="#5C0F07"/>
<path d="M21.6677 75.9697C20.8597 75.9697 20.0518 75.3005 20.0518 74.3637V71.2881C20.0518 70.4851 20.725 69.6834 21.6677 69.6834C22.4744 69.6834 23.2824 70.3526 23.2824 71.2881V74.3637C23.2824 75.3005 22.609 75.9697 21.6677 75.9697Z" fill="#5C0F07"/>
<path d="M26.3773 68.2119C25.5707 68.2119 24.7627 67.5427 24.7627 66.6072V60.4534C24.7627 59.6517 25.436 58.8487 26.3773 58.8487C27.32 58.8487 27.9934 59.5179 27.9934 60.4534V66.6072C27.9934 67.5427 27.32 68.2119 26.3773 68.2119Z" fill="#5C0F07"/>
<path d="M21.6677 68.2119C20.8597 68.2119 20.0518 67.5427 20.0518 66.6072V60.4534C20.0518 59.6517 20.725 58.8487 21.6677 58.8487C22.4744 58.8487 23.2824 59.5179 23.2824 60.4534V66.6072C23.2824 67.5427 22.609 68.2119 21.6677 68.2119Z" fill="#5C0F07"/>
<path d="M29.4732 27.9531H2.96123C2.15323 27.9531 1.34521 27.2853 1.34521 26.3484C1.34521 25.5454 2.01856 24.7437 2.96123 24.7437H29.4732C30.2812 24.7437 31.0879 25.4129 31.0879 26.3484C31.0879 27.2853 30.4145 27.9531 29.4732 27.9531Z" fill="#5C0F07"/>
<path d="M46.8349 35.71H20.1869C19.3802 35.71 18.5723 35.0408 18.5723 34.1052C18.5723 33.3035 19.2456 32.5006 20.1869 32.5006H46.8349C47.6416 32.5006 48.4496 33.1684 48.4496 34.1052C48.4496 34.9083 47.6416 35.71 46.8349 35.71Z" fill="#5C0F07"/>
<path d="M26.3772 43.4688H2.96123C2.15323 43.4688 1.34521 42.7996 1.34521 41.864C1.34521 40.9272 2.01856 40.258 2.96123 40.258H26.3772C27.1852 40.258 27.9933 40.9272 27.9933 41.864C27.9933 42.7996 27.3199 43.4688 26.3772 43.4688Z" fill="#5C0F07"/>
<path d="M41.9894 48.0146H27.9935C27.1855 48.0146 26.3774 47.3468 26.3774 46.4099C26.3774 45.6082 27.0508 44.8052 27.9935 44.8052H41.9894C42.7961 44.8052 43.6041 45.4731 43.6041 46.4099C43.6041 47.3468 42.7961 48.0146 41.9894 48.0146Z" fill="#5C0F07"/>
<path d="M40.3747 21.668H23.2827C22.4747 21.668 21.668 20.9988 21.668 20.0619C21.668 19.1264 22.34 18.4572 23.2827 18.4572H40.3747C41.1813 18.4572 41.9893 19.1264 41.9893 20.0619C41.9893 20.9988 41.316 21.668 40.3747 21.668Z" fill="#5C0F07"/>
</svg>
