<svg width="44" height="76" viewBox="0 0 44 76" fill="none" xmlns="http://www.w3.org/2000/svg">
<path d="M11.8078 50.5715H32.1358C37.6134 46.9973 41.0215 40.5101 41.0215 33.7579C41.0215 27.007 37.6134 20.5197 32.1358 16.9456H11.8078C6.20841 20.6522 2.92209 26.8732 2.92209 33.7579C2.92209 40.6412 6.20841 46.9973 11.8078 50.5715ZM32.3782 53.7495C32.2576 53.7495 32.1358 53.7495 32.014 53.7495H11.3206C11.077 53.7495 10.8333 53.6157 10.5897 53.4833C7.42524 51.4988 4.74795 48.5857 2.92209 45.2765C0.974431 41.8348 0 37.8619 0 33.7579C0 29.6538 0.974431 25.6823 2.92209 22.2406C4.74795 18.9314 7.42524 16.0183 10.5897 14.0325C10.8333 13.9 11.077 13.7676 11.3206 13.7676H31.8922C32.2576 13.6364 32.6218 13.6364 32.9872 13.9C36.1517 15.8858 38.8302 18.7989 40.7778 22.1081C42.7255 25.5511 43.6999 29.6538 43.6999 33.6267C43.6999 37.7307 42.7255 41.701 40.7778 45.144C38.952 48.5857 36.2747 51.365 32.9872 53.3521C32.8666 53.7495 32.6218 53.7495 32.3782 53.7495Z" fill="white"/>
<path d="M16.3109 50.5715H27.5096C30.5535 46.8648 32.5012 40.5101 32.5012 33.7579C32.5012 27.007 30.5535 20.5197 27.5096 16.9456H16.3109C13.2682 20.6522 11.3206 27.007 11.3206 33.7579C11.3206 40.5101 13.2682 46.9973 16.3109 50.5715ZM27.9969 53.7495C27.875 53.7495 27.7533 53.7495 27.6315 53.7495H15.7031C15.3377 53.7495 14.9722 53.6157 14.7286 53.3521C10.8333 49.1143 8.52148 41.8348 8.52148 33.8903C8.52148 25.9472 10.8333 18.6664 14.7286 14.4299C14.9722 14.165 15.3377 14.0325 15.7031 14.0325H27.6315C28.1187 13.9 28.6047 14.0325 28.9701 14.4299C32.8666 18.6664 35.3003 25.9472 35.3003 34.0241C35.3003 42.0984 32.9872 49.3805 28.9701 53.6157C28.7277 53.6157 28.3623 53.7495 27.9969 53.7495Z" fill="white"/>
<path d="M12.6592 13.7678H31.0395V9.13513H12.6592V13.7678ZM32.3782 16.9458H11.1987C10.4679 16.9458 9.73828 16.2835 9.73828 15.3561V7.67925C9.73828 6.8831 10.3473 6.08956 11.1987 6.08956H32.3782C33.1102 6.08956 33.8398 6.75194 33.8398 7.67925V15.3561C33.718 16.151 33.1102 16.9458 32.3782 16.9458Z" fill="white"/>
<path d="M12.6592 58.2505H31.0395V53.6166H12.6592V58.2505ZM32.3782 61.4272H11.1987C10.4679 61.4272 9.73828 60.7662 9.73828 59.8389V52.1607C9.73828 51.3658 10.3473 50.5723 11.1987 50.5723H32.3782C33.1102 50.5723 33.8398 51.2347 33.8398 52.1607V59.8389C33.718 60.6337 33.1102 61.4272 32.3782 61.4272Z" fill="white"/>
<path d="M19.5983 9.26807C18.8675 9.26807 18.1367 8.60572 18.1367 7.67972V1.58859C18.1367 0.79506 18.7457 0.000207901 19.5983 0.000207901C20.3279 0.000207901 21.0588 0.662587 21.0588 1.58859V7.67972C21.0588 8.60572 20.4497 9.26807 19.5983 9.26807Z" fill="white"/>
<path d="M23.8579 9.26807C23.1283 9.26807 22.3975 8.60572 22.3975 7.67972V1.58859C22.3975 0.79506 23.0065 0.000207901 23.8579 0.000207901C24.7105 0.000207901 25.3196 0.662587 25.3196 1.58859V7.67972C25.3196 8.60572 24.7105 9.26807 23.8579 9.26807Z" fill="white"/>
<path d="M17.1635 68.9742H26.2928C25.8056 68.0469 24.8312 67.3858 23.8579 67.3858H19.5984C18.6239 67.5183 17.6495 68.1806 17.1635 68.9742ZM28.1187 72.1509H15.4595C14.7286 72.1509 13.999 71.4898 13.999 70.5625C13.999 67.1208 16.5545 64.4727 19.5984 64.4727H23.8579C26.9006 64.4727 29.4573 67.1208 29.4573 70.43V70.5625C29.5791 71.356 28.8495 72.1509 28.1187 72.1509Z" fill="white"/>
<path d="M23.8579 75.1963C23.1283 75.1963 22.3975 74.5339 22.3975 73.6066V70.5623C22.3975 69.7675 23.0065 68.974 23.8579 68.974C24.7105 68.974 25.3196 69.6363 25.3196 70.5623V73.6066C25.3196 74.5339 24.7105 75.1963 23.8579 75.1963Z" fill="white"/>
<path d="M19.5983 75.1963C18.8675 75.1963 18.1367 74.5339 18.1367 73.6066V70.5623C18.1367 69.7675 18.7457 68.974 19.5983 68.974C20.3279 68.974 21.0588 69.6363 21.0588 70.5623V73.6066C21.0588 74.5339 20.4497 75.1963 19.5983 75.1963Z" fill="white"/>
<path d="M23.8579 67.5176C23.1283 67.5176 22.3975 66.8552 22.3975 65.9292V59.8381C22.3975 59.0445 23.0065 58.2497 23.8579 58.2497C24.7105 58.2497 25.3196 58.9121 25.3196 59.8381V65.9292C25.3196 66.8552 24.7105 67.5176 23.8579 67.5176Z" fill="white"/>
<path d="M19.5983 67.5176C18.8675 67.5176 18.1367 66.8552 18.1367 65.9292V59.8381C18.1367 59.0445 18.7457 58.2497 19.5983 58.2497C20.3279 58.2497 21.0588 58.9121 21.0588 59.8381V65.9292C21.0588 66.8552 20.4497 67.5176 19.5983 67.5176Z" fill="white"/>
<path d="M26.6582 27.6689H2.67846C1.94764 27.6689 1.2168 27.0079 1.2168 26.0806C1.2168 25.2858 1.82583 24.4922 2.67846 24.4922H26.6582C27.389 24.4922 28.1187 25.1546 28.1187 26.0806C28.1187 27.0079 27.5096 27.6689 26.6582 27.6689Z" fill="white"/>
<path d="M42.3613 35.3462H18.2585C17.5289 35.3462 16.7981 34.6838 16.7981 33.7578C16.7981 32.9643 17.4071 32.1695 18.2585 32.1695H42.3613C43.0909 32.1695 43.8217 32.8305 43.8217 33.7578C43.8217 34.5527 43.0909 35.3462 42.3613 35.3462Z" fill="white"/>
<path d="M23.8579 43.0264H2.67846C1.94764 43.0264 1.2168 42.364 1.2168 41.438C1.2168 40.5107 1.82583 39.8483 2.67846 39.8483H23.8579C24.5887 39.8483 25.3196 40.5107 25.3196 41.438C25.3196 42.364 24.7106 43.0264 23.8579 43.0264Z" fill="white"/>
<path d="M37.979 47.5264H25.3198C24.589 47.5264 23.8582 46.8653 23.8582 45.938C23.8582 45.1445 24.4672 44.3496 25.3198 44.3496H37.979C38.7086 44.3496 39.4394 45.0107 39.4394 45.938C39.4394 46.8653 38.7086 47.5264 37.979 47.5264Z" fill="white"/>
<path d="M36.5183 21.4473H21.0589C20.328 21.4473 19.5984 20.7849 19.5984 19.8576C19.5984 18.9316 20.2062 18.2692 21.0589 18.2692H36.5183C37.248 18.2692 37.9788 18.9316 37.9788 19.8576C37.9788 20.7849 37.3698 21.4473 36.5183 21.4473Z" fill="white"/>
</svg>
