<svg width="111" height="129" viewBox="0 0 111 129" fill="none" xmlns="http://www.w3.org/2000/svg">
<path d="M42.9202 27.5062H67.107V19.2059H42.9202V27.5062ZM69.9545 32.9614H40.3125C38.8911 32.9614 37.4673 31.775 37.4673 30.114V16.3608C37.4673 14.9394 38.6538 13.5157 40.3125 13.5157H69.9545C71.3782 13.5157 72.7996 14.7021 72.7996 16.3608V30.114C72.5647 31.775 71.3782 32.9614 69.9545 32.9614Z" fill="#636024"/>
<path d="M36.7556 106.946H72.565V98.8826H36.7556V106.946ZM75.4076 112.638H34.1479C32.7265 112.638 31.3027 111.452 31.3027 109.791V96.0375C31.3027 94.6138 32.4869 93.1924 34.1479 93.1924H75.4076C76.8313 93.1924 78.2528 94.3789 78.2528 96.0375V109.791C78.0178 111.452 76.8313 112.638 75.4076 112.638Z" fill="#636024"/>
<path d="M55.0152 32.9618C41.4993 32.9618 28.93 36.2814 19.6829 42.2089C10.6707 47.8991 5.69241 55.2503 5.69241 63.076C5.69241 70.9018 10.6707 78.253 19.6829 83.9431C29.1673 89.8729 41.7342 93.1926 55.0152 93.1926C68.2939 93.1926 81.0979 89.8729 90.3474 83.9431C99.3596 78.253 104.338 70.9018 104.338 63.076C104.338 55.2503 99.3596 47.8991 90.3474 42.2089C81.0979 36.2814 68.5312 32.9618 55.0152 32.9618ZM55.0152 98.8828C40.5502 98.8828 27.0341 95.3259 16.5982 88.6866C5.92733 82.0472 0 72.8001 0 63.076C0 53.3543 5.92733 44.1049 16.5982 37.4655C26.7968 31.0635 40.5502 27.2692 55.0152 27.2692C69.4803 27.2692 82.9962 30.8262 93.4298 37.4655C104.101 44.1049 110.03 53.3543 110.03 63.076C110.03 72.8001 104.101 82.0472 93.4298 88.6866C82.9962 95.3259 69.4803 98.8828 55.0152 98.8828Z" fill="#636024"/>
<path d="M55.0152 32.9618C42.2111 32.9618 32.0147 46.4754 32.0147 63.076C32.0147 79.6767 42.4461 93.1926 55.0152 93.1926C67.582 93.1926 78.0179 79.6767 78.0179 63.076C78.0179 46.4754 67.8193 32.9618 55.0152 32.9618ZM55.0152 98.8828C47.1894 98.8828 40.0754 95.0886 34.6202 88.212C29.4046 81.5727 26.5596 72.5628 26.5596 63.3133C26.5596 54.0639 29.4046 45.054 34.6202 38.4147C40.0754 31.5381 47.1894 27.7438 55.0152 27.7438C62.841 27.7438 69.9548 31.5381 75.4077 38.4147C80.6257 45.054 83.4708 54.0639 83.4708 63.3133C83.4708 72.8001 80.6257 81.5727 75.4077 88.212C69.9548 95.0886 62.841 98.8828 55.0152 98.8828Z" fill="#636024"/>
<path d="M55.0145 32.9618C34.6196 32.9618 18.2585 46.4754 18.2585 63.076C18.2585 79.6767 34.8593 93.4299 55.0145 93.4299C75.1721 93.4299 91.7705 79.6767 91.7705 63.076C91.7705 46.4754 75.4071 32.9618 55.0145 32.9618ZM55.0145 98.8828C43.8691 98.8828 33.1982 95.3259 25.3748 88.6866C17.3094 82.0472 12.8057 72.8001 12.8057 63.3133C12.8057 53.8289 17.3094 44.3422 25.3748 37.7028C33.4355 31.0635 43.8691 27.5065 55.0145 27.5065C66.16 27.5065 76.8308 31.0635 84.6565 37.7028C92.7196 44.3422 97.2257 53.5916 97.2257 63.076C97.2257 72.5628 92.7196 81.8099 84.6565 88.4493C76.8308 95.0886 66.16 98.8828 55.0145 98.8828Z" fill="#636024"/>
<path d="M55.0148 57.6234C48.1382 57.6234 42.9202 60.7057 42.9202 63.0763C42.9202 65.6841 48.1382 68.5315 55.0148 68.5315C61.8915 68.5315 67.107 65.4491 67.107 63.0763C67.107 60.7057 61.8915 57.6234 55.0148 57.6234ZM55.0148 73.9844C50.5088 73.9844 46.4771 73.0376 43.1574 71.1393C39.3655 69.0037 37.4673 66.1586 37.4673 62.839C37.4673 59.5193 39.6005 56.6742 43.1574 54.541C46.2398 52.6427 50.5088 51.6936 55.0148 51.6936C59.5209 51.6936 63.5524 52.6427 66.8721 54.541C70.6663 56.6742 72.5647 59.5193 72.5647 62.839C72.5647 66.1586 70.4267 69.0037 66.8721 71.1393C63.5524 73.0376 59.5209 73.9844 55.0148 73.9844Z" fill="#636024"/>
<path d="M47.9015 13.7531H61.6548V12.3294C61.6548 8.5352 58.5723 5.45282 54.778 5.45282C50.9838 5.45282 47.9015 8.5352 47.9015 12.3294V13.7531ZM64.2625 19.2061H45.0564C43.6326 19.2061 42.2114 18.0219 42.2114 16.3609V12.3294C42.2114 5.45282 47.6642 -6.48499e-05 54.5408 -6.48499e-05C61.4174 -6.48499e-05 66.8727 5.45282 66.8727 12.3294V16.3609C67.1077 18.0219 65.9235 19.2061 64.2625 19.2061Z" fill="#636024"/>
<path d="M42.4462 129C41.0249 129 39.6011 127.816 39.6011 126.155V109.792C39.6011 108.37 40.7876 106.946 42.4462 106.946C44.1073 106.946 45.2937 108.133 45.2937 109.792V126.155C45.0564 127.816 43.87 129 42.4462 129Z" fill="#636024"/>
<path d="M34.1479 129C32.7265 129 31.3027 127.816 31.3027 126.155V109.792C31.3027 108.37 32.4869 106.946 34.1479 106.946C35.5693 106.946 36.9931 108.133 36.9931 109.792V126.155C36.7558 127.816 35.5693 129 34.1479 129Z" fill="#636024"/>
<path d="M50.7461 129C49.3247 129 47.9009 127.816 47.9009 126.155V109.792C47.9009 108.37 49.085 106.946 50.7461 106.946C52.1698 106.946 53.591 108.133 53.591 109.792V126.155C53.3561 127.816 52.1698 129 50.7461 129Z" fill="#636024"/>
<path d="M58.8093 129C57.3879 129 55.9644 127.816 55.9644 126.155V109.792C55.9644 108.37 57.1483 106.946 58.8093 106.946C60.468 106.946 61.6545 108.133 61.6545 109.792V126.155C61.6545 127.816 60.468 129 58.8093 129Z" fill="#636024"/>
<path d="M67.1079 129C65.6865 129 64.2627 127.816 64.2627 126.155V109.792C64.2627 108.37 65.4492 106.946 67.1079 106.946C68.7689 106.946 69.9553 108.133 69.9553 109.792V126.155C69.9553 127.816 68.5316 129 67.1079 129Z" fill="#636024"/>
<path d="M75.4076 129C73.9862 129 72.5649 127.816 72.5649 126.155V109.792C72.5649 108.37 73.7466 106.946 75.4076 106.946C77.0686 106.946 78.2528 108.133 78.2528 109.792V126.155C78.0178 127.816 76.8313 129 75.4076 129Z" fill="#636024"/>
</svg>
