<svg width="38" height="39" viewBox="0 0 38 39" fill="none" xmlns="http://www.w3.org/2000/svg">
<path d="M19 1.82812C15.3793 1.83216 11.9081 3.31009 9.34791 5.93766C6.78772 8.56523 5.34768 12.1278 5.34375 15.8437C5.34375 27.6291 17.4622 36.4711 17.9788 36.8413C18.2781 37.0563 18.6346 37.1716 19 37.1716C19.3654 37.1716 19.7219 37.0563 20.0213 36.8413C22.3165 35.1052 24.4164 33.1125 26.2823 30.8999C30.452 25.9853 32.6562 20.7751 32.6562 15.8437C32.6523 12.1278 31.2123 8.56523 28.6521 5.93766C26.0919 3.31009 22.6207 1.83216 19 1.82812Z" fill="#9C2322"/>
<ellipse cx="19.0001" cy="16.25" rx="6.33333" ry="6.5" fill="#FCFDED"/>
</svg>
