<svg width="135" height="132" viewBox="0 0 135 132" fill="none" xmlns="http://www.w3.org/2000/svg">
<path d="M43.826 125.297H90.9016V119.074H43.826V125.297ZM93.876 131.518H40.8519C39.2273 131.518 37.6052 130.166 37.6052 128.272V115.827C37.6052 114.205 38.9579 112.581 40.8519 112.581H94.148C95.7726 112.581 97.3944 113.936 97.3944 115.827V128.272C97.1223 130.166 95.7727 131.518 93.876 131.518Z" fill="#60110A"/>
<path d="M15.9602 72.0013H22.1839C23.5363 63.3422 31.1122 56.5799 40.3101 56.3105C41.1211 54.1444 42.4735 51.9782 43.826 50.0869C42.7456 50.0869 41.9322 49.8149 40.8519 49.8149C27.8632 50.087 17.3126 59.8263 15.9602 72.0013ZM25.1609 78.2223H12.7137C11.0918 78.2223 9.46729 76.8697 9.46729 74.9757C9.46729 57.6602 23.5364 43.5939 40.8519 43.5939C44.0983 43.5939 47.6141 44.1328 50.5912 45.2158C51.6715 45.4852 52.4852 46.5684 52.7547 47.3793C53.0241 48.4624 52.7547 49.5454 51.9438 50.3563C48.9667 53.0613 46.8031 56.5799 45.4506 60.368C44.9091 61.7204 43.5567 62.5313 42.2042 62.5313C41.6627 62.5313 41.3934 62.5313 40.8519 62.5313C33.8147 62.5313 28.4073 68.2133 28.4073 74.9757C28.1352 76.8697 26.7828 78.2223 25.1609 78.2223Z" fill="#60110A"/>
<path d="M28.6766 72.0013H37.8744C37.8744 70.9183 37.605 69.8353 37.605 68.7549C37.605 66.8609 37.8746 64.6948 38.1467 62.8035C33.5477 63.8839 29.7596 67.4024 28.6766 72.0013ZM41.3931 78.2223H25.1607C23.5361 78.2223 21.9114 76.8697 21.9114 74.9757C21.9114 64.6947 30.3011 56.3105 40.5794 56.3105C41.1209 56.3105 41.9319 56.3105 42.4734 56.3105C43.5565 56.3105 44.3675 56.8493 44.909 57.6602C45.4505 58.4739 45.4505 59.557 45.1784 60.368C44.3675 63.0729 43.8258 65.7778 43.8258 68.7549C43.8258 70.6489 44.0981 72.5402 44.3675 74.4343C44.6396 75.2479 44.3673 76.3283 43.8258 77.1392C43.2843 77.9529 42.4735 78.2223 41.3931 78.2223Z" fill="#60110A"/>
<path d="M115.79 72.0013H122.014C120.39 59.5569 109.839 50.0869 97.1225 50.0869C96.0421 50.0869 95.2284 50.0869 94.1481 50.3563C95.5006 52.2503 96.8532 54.4138 97.6668 56.5799C106.593 56.5799 114.169 63.3422 115.79 72.0013ZM125.261 78.2223H112.816C111.191 78.2223 109.57 76.8697 109.57 74.9757C109.57 67.9412 103.888 62.5313 97.1225 62.5313C96.5836 62.5313 96.3143 62.5313 95.7727 62.5313C94.4203 62.8034 93.0676 61.7204 92.5234 60.368C91.1709 56.5799 89.0076 53.0613 86.0305 50.3563C85.2223 49.5454 84.9502 48.4624 85.2223 47.3793C85.4917 46.299 86.3028 45.4852 87.3832 45.2158C90.6296 44.1328 93.876 43.5939 97.1225 43.5939C114.438 43.5939 128.235 57.6602 128.507 74.7063V74.9757C128.507 76.8697 127.155 78.2223 125.261 78.2223Z" fill="#60110A"/>
<path d="M100.099 72.0013H109.3C108.217 67.4024 104.429 63.8839 99.8298 62.8035C100.099 64.6948 100.372 66.8609 100.372 68.7549C100.372 69.8353 100.099 70.9183 100.099 72.0013ZM112.816 78.2223H96.3139C95.2282 78.2223 94.42 77.6834 93.8758 77.1392C93.3369 76.3283 93.0675 75.5173 93.3369 74.4343C93.8758 72.5402 93.8758 70.6489 93.8758 68.7549C93.8758 66.0473 93.3368 63.0729 92.5231 60.368C92.2537 59.557 92.2539 58.4739 92.7955 57.6602C93.337 56.8493 94.1477 56.3105 95.2281 56.3105C95.7723 56.3105 96.5834 56.3105 97.1222 56.3105C107.406 56.3105 115.79 64.6947 115.79 74.9757C116.062 76.8697 114.438 78.2223 112.816 78.2223Z" fill="#60110A"/>
<path d="M87.3829 72.0013H93.6064C93.6064 70.9183 93.8758 69.8353 93.8758 68.7549C93.8758 66.0473 93.3368 63.0729 92.5232 60.368C91.1707 56.5799 89.0074 53.0613 86.0303 50.3563C81.4314 46.0268 75.2106 43.5939 68.7176 43.5939C62.2219 43.5939 56.2703 46.0268 51.4019 50.3563C48.4249 53.0613 46.2642 56.5799 44.9091 60.368C44.0981 63.0729 43.5565 65.7778 43.5565 68.7549C43.5565 69.8353 43.5565 70.9183 43.8259 72.0013H50.0496C49.7775 70.9183 49.7775 69.8353 49.7775 68.7549C49.7775 58.4739 58.1672 50.0869 68.4455 50.0869C78.7265 50.0869 87.1161 58.4739 87.1161 68.7549C87.655 69.8353 87.655 70.9183 87.3829 72.0013ZM96.314 78.2223H83.0559C81.9729 78.2223 80.8925 77.6834 80.351 76.8698C79.8094 76.0589 79.8095 74.9757 80.0789 73.8927C80.8926 72.2708 81.1618 70.6489 81.1618 68.7549C81.1618 61.7204 75.48 56.3105 68.7176 56.3105C61.9552 56.3105 56.2704 61.9898 56.2704 68.7549C56.2704 70.3768 56.5427 72.2708 57.3536 73.8927C57.8951 74.9757 57.623 76.0589 57.0842 76.8698C56.5427 77.6834 55.4621 78.2223 54.3763 78.2223H41.1212C39.7687 78.2223 38.4135 77.1392 38.1468 75.7867C37.6053 73.6233 37.333 71.1877 37.333 68.7549C37.333 65.2363 37.8746 61.7204 38.9577 58.4739C40.5796 53.8749 43.2846 49.5454 47.0726 46.0268C53.024 40.6169 60.6001 37.3705 68.4455 37.3705C76.2937 37.3705 84.1364 40.3475 89.8211 46.0268C93.337 49.5454 96.3141 53.8749 97.936 58.4739C99.0191 61.7204 99.5604 65.2363 99.5604 68.7549C99.5604 71.1877 99.2884 73.3539 98.7469 75.7867C99.2884 77.4113 97.9359 78.2223 96.314 78.2223Z" fill="#60110A"/>
<path d="M56.815 72.0013H81.1621C81.4315 70.9183 81.4315 69.8353 81.4315 68.7549C81.4315 61.7204 75.7523 56.3105 68.9872 56.3105C61.9554 56.3105 56.5427 61.9898 56.5427 68.7549C56.2706 70.1047 56.5429 70.9183 56.815 72.0013ZM83.3256 78.2223H54.6489C53.2964 78.2223 52.2158 77.4113 51.6716 76.3282C50.5912 73.8927 50.0498 71.4599 50.0498 68.7549C50.0498 58.4739 58.4368 50.0869 68.7178 50.0869C78.9988 50.0869 87.3831 58.4739 87.3831 68.7549C87.3831 71.4599 86.8442 73.8927 85.7611 76.3282C85.7611 77.6834 84.4086 78.2223 83.3256 78.2223Z" fill="#60110A"/>
<path d="M6.49313 78.2223C8.11503 97.4318 24.3475 112.581 44.0985 112.581H91.1712C110.925 112.581 127.155 97.4318 128.777 78.2223H6.49313ZM90.9017 119.074H43.8262C19.7483 119.074 0 99.3258 0 75.2479C0 73.6233 1.35269 72.0013 3.2467 72.0013H131.754C133.378 72.0013 135 73.3539 135 75.2479C134.728 99.3258 114.98 119.074 90.9017 119.074Z" fill="#60110A"/>
<path d="M34.3589 18.7024C32.7343 18.7024 31.3819 17.6193 31.3819 15.9974C31.1124 14.3728 32.4622 12.7509 34.0868 12.4788L124.991 0.0344067C126.616 -0.235011 128.235 1.11741 128.507 2.74201C128.776 4.3639 127.427 5.98844 125.802 6.25786L34.9003 18.7024C34.6282 18.7024 34.6283 18.7024 34.3589 18.7024Z" fill="#60110A"/>
<path d="M128.507 28.1692H34.3585C32.7339 28.1692 31.1121 26.8167 31.1121 24.9254C31.1121 23.3008 32.4618 21.679 34.3585 21.679H128.235C129.859 21.679 131.481 23.0314 131.481 24.9254C131.481 26.8167 130.129 28.1692 128.507 28.1692Z" fill="#60110A"/>
<path d="M53.2962 47.1097C51.6716 47.1097 50.0498 45.7572 50.0498 43.8632V15.7252C50.0498 14.1033 51.4022 12.4787 53.2962 12.4787C55.1902 12.4787 56.5427 13.8339 56.5427 15.7252V43.8632C56.2706 45.4851 54.9181 47.1097 53.2962 47.1097Z" fill="#60110A"/>
<path d="M43.8258 50.0864C42.2039 50.0864 40.5793 48.7313 40.5793 46.84V24.9254C40.5793 23.3009 41.9318 21.679 43.8258 21.679C45.4504 21.679 47.0725 23.0314 47.0725 24.9254V46.84C47.0725 48.7313 45.7198 50.0864 43.8258 50.0864Z" fill="#60110A"/>
<path d="M68.9872 34.3959C67.3653 34.3959 65.7407 33.0407 65.7407 31.1467V12.4787C65.7407 10.8568 67.0931 9.23213 68.9872 9.23213C70.6117 9.23213 72.2336 10.5874 72.2336 12.4787V31.1467C71.9642 33.0407 70.6117 34.3959 68.9872 34.3959Z" fill="#60110A"/>
</svg>
