<svg width="135" height="147" viewBox="0 0 135 147" fill="none" xmlns="http://www.w3.org/2000/svg">
<path d="M35.9848 68.353C35.1964 72.8182 34.6708 77.2835 34.6708 82.0115C34.6708 107.223 48.8522 127.71 66.4503 127.71C84.0483 127.71 98.2299 107.223 98.2299 82.0115C98.2299 77.2835 97.7042 72.5554 96.653 68.0902C86.1483 71.2414 75.6436 72.5555 64.876 72.5555C55.1572 72.5555 45.4383 71.2414 35.9848 68.353ZM66.4503 133.752C56.2084 133.752 46.4895 128.235 39.3988 118.254C32.5708 108.537 28.6287 95.6673 28.6287 82.0115C28.6287 75.7066 29.4171 69.6645 30.9939 63.8878C31.2568 63.0994 31.7824 62.3109 32.5708 62.0481C33.3567 61.5251 34.1451 61.5251 34.9336 61.7879C44.6524 64.9391 54.6315 66.5159 64.876 66.5159C75.9064 66.5159 86.9367 64.6762 97.7042 61.2597C98.4927 60.9995 99.2811 60.9995 100.067 61.5251C100.855 61.7879 101.381 62.5738 101.644 63.3622C103.221 69.4043 104.272 75.7066 104.272 82.0115C104.272 95.6673 100.332 108.537 93.5018 118.254C86.4111 128.235 76.6948 133.752 66.4503 133.752Z" fill="#60110A"/>
<path d="M8.14201 48.1293C16.284 54.1688 25.2144 58.634 34.9333 61.7877C44.6522 64.9389 54.6313 66.5158 64.8758 66.5158C75.9061 66.5158 86.9364 64.6761 97.704 61.2595C107.686 58.111 117.142 53.6457 126.332 47.6036L92.976 24.2289L65.9244 6.63085L42.2869 24.2289L8.14201 48.1293ZM64.8758 72.5553C53.8428 72.5553 43.0753 70.9784 32.8334 67.5644C21.2748 63.8876 10.5073 58.111 1.05126 50.2292C0.265425 49.7062 0 48.6549 0 47.8665C0 46.8152 0.528241 46.0267 1.31408 45.5011L38.6101 19.5009L63.8245 0.591364C64.8758 -0.197075 66.1872 -0.197075 67.2385 0.591364L96.1297 19.5009L133.686 45.2409C134.474 45.7639 135 46.8152 135 47.8665C135 48.9177 134.474 49.7062 133.686 50.492C122.918 57.8456 111.625 63.362 99.8065 67.3016C88.2505 70.7156 76.4317 72.5553 64.8758 72.5553Z" fill="#60110A"/>
<path d="M86.9365 145.831C85.3596 145.831 83.7853 144.52 83.7853 142.683V115.103C83.7853 111.952 80.8944 109.326 77.4804 109.326H56.7312C53.3173 109.326 50.4289 111.952 50.4289 115.103V142.945C50.4289 144.52 49.1148 146.096 47.2777 146.096C45.4381 146.096 44.124 144.782 44.124 142.945V115.103C44.124 108.538 49.6405 103.284 56.471 103.284H77.2176C84.0482 103.284 89.562 108.538 89.562 115.103V142.945C90.0876 144.52 88.7762 145.831 86.9365 145.831Z" fill="#60110A"/>
<path d="M77.7434 91.202C76.6947 91.202 75.6435 90.6764 75.1178 89.6277C74.3294 88.0509 74.855 86.2112 76.4319 85.4254L88.5135 79.3833C90.0878 78.5948 91.9275 79.1204 92.7133 80.6973C93.5018 82.2742 92.9761 84.1113 91.4019 84.8997L79.3203 90.6764C78.7947 90.9392 78.269 91.202 77.7434 91.202Z" fill="#60110A"/>
<path d="M53.5803 91.202C53.0547 91.202 52.5291 90.9392 52.006 90.6764L42.8128 84.6369C41.4988 83.5857 40.9757 81.7485 42.0244 80.4345C43.0756 79.1204 44.9127 78.5948 46.2268 79.6461L55.42 85.6882C56.7315 86.7368 57.2571 88.5765 56.2085 89.8879C55.4201 90.6764 54.3688 91.202 53.5803 91.202Z" fill="#60110A"/>
</svg>
