<svg width="135" height="135" viewBox="0 0 135 135" fill="none" xmlns="http://www.w3.org/2000/svg">
<path d="M23.2627 18.5469H111.195V6.18142H23.2627V18.5469ZM114.461 25H20.2688C18.6344 25 17 23.6551 17 21.7748V3.22517C17 1.6139 18.362 0 20.2688 0H114.734C116.368 0 118 1.34491 118 3.22517V21.7748C117.728 23.3861 116.368 25 114.461 25Z" fill="#60110A"/>
<path d="M117.545 15.7563H128.726V9.51526H117.545V15.7563ZM131.728 22H114.272C112.635 22 111 20.6421 111 18.741V6.25632C111 4.62952 112.362 3 114.272 3H131.728C133.363 3 135 4.35794 135 6.25632V18.741C135 20.6421 133.638 22 131.728 22Z" fill="#60110A"/>
<path d="M6.27153 15.7563H17.4529V9.51526H6.27153V15.7563ZM20.7277 22H3.27232C1.63486 22 0 20.6421 0 18.741V6.25632C0 4.62952 1.36195 3 3.27232 3H20.7277C22.3624 3 24 4.35794 24 6.25632V18.741C23.7271 20.6421 22.3624 22 20.7277 22Z" fill="#60110A"/>
<path d="M23.2627 128.817H111.195V116.452H23.2627V128.817ZM114.461 135H20.2688C18.6344 135 17 133.655 17 131.773V113.227C17 111.614 18.362 110 20.2688 110H114.734C116.368 110 118 111.345 118 113.227V131.773C117.728 133.655 116.368 135 114.461 135Z" fill="#60110A"/>
<path d="M117.545 125.758H128.726V119.513H117.545V125.758ZM131.728 132H114.272C112.635 132 111 130.645 111 128.743V116.257C111 114.627 112.362 113 114.272 113H131.728C133.363 113 135 114.358 135 116.257V128.743C135 130.645 133.638 132 131.728 132Z" fill="#60110A"/>
<path d="M6.27153 125.758H17.4529V119.513H6.27153V125.758ZM20.7277 132H3.27232C1.63486 132 0 130.645 0 128.743V116.257C0 114.627 1.36195 113 3.27232 113H20.7277C22.3624 113 24 114.358 24 116.257V128.743C23.7271 130.645 22.3624 132 20.7277 132Z" fill="#60110A"/>
<path d="M28.2121 109.532H106.518V25.4681H28.2121V109.532ZM109.49 116H25.2425C23.6213 116 22 114.652 22 112.767V22.2354C22 20.6177 23.3511 19 25.2425 19H109.76C111.381 19 113 20.3481 113 22.2354V112.767C112.732 114.382 111.382 116 109.49 116Z" fill="#60110A"/>
<path d="M67.5001 40.589C52.6734 40.589 40.5917 52.6706 40.5917 67.5C40.5917 82.3266 52.6734 94.4083 67.5001 94.4083C82.3294 94.4083 94.4111 82.3266 94.4111 67.5C94.4111 52.6706 82.3294 40.589 67.5001 40.589ZM67.5001 101C49.1042 101 34 85.8986 34 67.5C34 49.1014 49.1042 34 67.5001 34C85.8987 34 101 49.1014 101 67.5C101 85.8986 85.8987 101 67.5001 101Z" fill="#60110A"/>
</svg>
