<svg width="120" height="120" viewBox="0 0 120 120" fill="none" xmlns="http://www.w3.org/2000/svg">
<path d="M39.7707 26.6657C38.6206 26.6657 37.7005 26.898 36.5504 27.1257C32.1843 28.5059 29.1961 32.6443 29.1961 37.2426V85.0573C29.1961 91.0341 34.0222 95.6302 39.7707 95.6302H85.0553C91.0339 95.6302 95.6324 90.8038 95.6324 85.0573V37.4704C95.6324 32.8743 92.6418 28.736 88.2735 27.3558C87.3556 26.898 86.2055 26.6657 85.0553 26.6657H39.7707ZM85.0553 101.378H39.7707C31.0363 101.378 23.9077 94.2521 23.9077 85.5174V37.4704C23.9077 30.574 28.2759 24.3676 34.9423 22.2973C36.5502 21.8396 38.1628 21.6072 39.7707 21.6072H85.0553C86.6656 21.6072 88.2736 21.8396 89.8838 22.2973C96.5502 24.3676 100.919 30.574 100.919 37.4704V85.2851C101.151 94.0218 93.792 101.378 85.0553 101.378Z" fill="#60110A"/>
<path d="M59.5398 5.51627C59.0798 5.51627 58.6199 5.97635 58.6199 6.43641V8.27667C61.3803 8.04436 63.9082 8.04436 66.6663 8.27667V6.43641C66.6663 5.97635 66.2062 5.51627 65.7462 5.51627H59.5398ZM69.1967 14.023C68.9644 14.023 68.9644 14.023 68.7343 14.023C64.5983 13.3351 60.46 13.3351 56.3217 14.023C55.6316 14.253 54.7114 14.023 54.2536 13.3351C53.5635 12.8728 53.3335 12.1849 53.3335 11.2625V6.43641C53.3335 2.99048 56.0941 4.86374e-05 59.77 4.86374e-05H65.5162C68.9644 4.86374e-05 71.9525 2.75817 71.9525 6.43641V11.2625C71.9525 11.9549 71.4926 12.8728 71.0348 13.3351C70.3447 13.7929 69.6568 14.023 69.1967 14.023Z" fill="#60110A"/>
<path d="M41.1484 21.3793H83.6772C80.229 17.701 74.9427 14.9429 68.5063 14.0228C64.3657 13.335 60.2297 13.335 56.0937 14.0228C49.8851 14.9429 44.5988 17.701 41.1484 21.3793ZM35.8622 27.3556C35.1721 27.3556 34.4822 27.1256 33.7943 26.4377C33.1043 25.7476 32.8719 24.5975 33.3319 23.6796C36.5501 16.3208 45.0567 10.5746 55.4013 8.73432C59.9997 7.81647 65.056 7.81647 69.6567 8.73432C80.0013 10.5746 88.2733 16.3208 91.7238 23.6796C92.1816 24.5975 91.9537 25.7476 91.2636 26.4377C90.5735 27.1256 89.4235 27.5856 88.5057 27.1256C87.3555 26.8978 86.2052 26.6655 85.0551 26.6655H39.7705C38.6203 26.6655 37.7003 26.8978 36.5501 27.1256C36.3223 27.3556 36.0899 27.3556 35.8622 27.3556Z" fill="#60110A"/>
<path d="M101.151 40.0007V82.5271C108.735 81.3795 114.481 74.9408 114.481 67.1261V40.4608C114.481 40.2284 114.254 40.0007 114.021 40.0007H101.151ZM98.8505 88.0457H98.3903C97.0101 88.0457 95.6323 86.8955 95.6323 85.285V37.4703C95.6323 36.0924 96.7823 34.7122 98.3903 34.7122H113.794C117.012 34.7122 119.54 37.2426 119.54 40.4608V67.1261C119.77 78.6214 110.345 88.0457 98.8505 88.0457Z" fill="#60110A"/>
<path d="M5.28864 52.4133L23.9076 77.2407V57.4718L5.28864 47.1272V52.4133ZM26.4356 88.0457C25.5178 88.0457 24.8277 87.5858 24.3676 86.8955L0.460181 54.9414C0.000115661 54.4814 0 54.0236 0 53.3335V42.7588C0 41.8387 0.460244 40.9185 1.3781 40.4608C2.29823 40.0007 3.21816 40.0007 4.1383 40.4608L28.0459 53.7913C28.9638 54.2513 29.426 55.1737 29.426 56.0916V85.285C29.426 86.4354 28.7359 87.3581 27.5857 87.8154C27.1257 87.8154 26.6679 88.0457 26.4356 88.0457Z" fill="#60110A"/>
<path d="M106.437 120C105.057 120 103.676 118.85 103.676 117.241V101.378H21.1495V117.241C21.1495 118.619 19.9992 120 18.3913 120C17.0111 120 15.6333 118.85 15.6333 117.241V98.6204C15.6333 97.2395 16.781 95.8625 18.3913 95.8625H106.207C107.585 95.8625 108.965 97.0127 108.965 98.6204V117.241C108.965 118.619 107.817 120 106.437 120Z" fill="#60110A"/>
<path d="M29.1959 63.9081H95.8621V45.2868H29.1959V63.9081ZM98.3901 69.4266H26.4354C25.0575 69.4266 23.6772 68.2765 23.6772 66.666V42.7588C23.6772 41.3786 24.8275 40.0007 26.4354 40.0007H98.3901C99.768 40.0007 101.151 41.1485 101.151 42.7588V66.666C101.151 68.046 99.768 69.4266 98.3901 69.4266Z" fill="#60110A"/>
</svg>
