<svg width="26" height="26" viewBox="0 0 26 26" fill="none" xmlns="http://www.w3.org/2000/svg">
<path d="M23.5603 2.92728C23.434 2.82003 23.2804 2.74869 23.116 2.72097C22.9516 2.69325 22.7826 2.71018 22.6273 2.76995L1.98477 10.7175C1.69222 10.8295 1.44454 11.0319 1.27902 11.2942C1.1135 11.5566 1.0391 11.8648 1.06702 12.1724C1.09494 12.48 1.22367 12.7703 1.43383 12.9997C1.64399 13.2291 1.9242 13.3851 2.23228 13.4442L7.58084 14.4774V20.3447C7.57979 20.6642 7.67632 20.9768 7.85793 21.2417C8.03955 21.5067 8.29787 21.7119 8.59942 21.8308C8.9005 21.9517 9.23161 21.9807 9.54969 21.9141C9.86777 21.8474 10.1581 21.6882 10.3829 21.457L12.962 18.8255L17.0536 22.3488C17.3488 22.6064 17.7296 22.749 18.1241 22.7497C18.2971 22.7495 18.4689 22.7228 18.6334 22.6705C18.9023 22.5866 19.1441 22.4348 19.3348 22.2303C19.5255 22.0259 19.6584 21.7758 19.7203 21.5051L23.8547 3.81013C23.8917 3.65054 23.8838 3.48406 23.8319 3.32854C23.7801 3.17302 23.6862 3.03431 23.5603 2.92728ZM17.3327 6.53482L8.20726 12.9642L3.15511 11.9892L17.3327 6.53482ZM9.21056 20.3447V15.5867L11.7356 17.7653L9.21056 20.3447ZM18.1262 21.1463L9.70457 13.8812L21.8257 5.33431L18.1262 21.1463Z" fill="black"/>
</svg>
