<svg width="29" height="29" viewBox="0 0 29 29" fill="none" xmlns="http://www.w3.org/2000/svg">
<path d="M18.887 13.7614L13.4495 10.2143C13.313 10.1252 13.1543 10.074 12.9904 10.0662C12.8265 10.0585 12.6635 10.0944 12.5188 10.1702C12.3741 10.246 12.2532 10.3588 12.1689 10.4966C12.0846 10.6344 12.0402 10.792 12.0403 10.9526V18.0468C12.0402 18.2074 12.0846 18.365 12.1689 18.5027C12.2532 18.6405 12.3741 18.7533 12.5188 18.8291C12.6635 18.9049 12.8265 18.9409 12.9904 18.9331C13.1543 18.9253 13.313 18.8741 13.4495 18.785L18.887 15.2379C19.0113 15.157 19.1133 15.0472 19.1838 14.9184C19.2543 14.7896 19.2912 14.6458 19.2912 14.4997C19.2912 14.3536 19.2543 14.2097 19.1838 14.0809C19.1133 13.9521 19.0113 13.8424 18.887 13.7614ZM13.8528 16.3896V12.6153L16.7505 14.4997L13.8528 16.3896ZM26.8042 8.01733C26.6975 7.60869 26.493 7.23074 26.2076 6.91466C25.9222 6.59858 25.5641 6.35343 25.1628 6.19944C21.2795 4.73182 15.0989 4.74512 14.759 4.74512C14.4192 4.74512 8.23856 4.73182 4.35528 6.19944C3.954 6.35343 3.59588 6.59858 3.31048 6.91466C3.02508 7.23074 2.82058 7.60869 2.71384 8.01733C2.42044 9.12358 2.07153 11.1454 2.07153 14.4997C2.07153 17.8539 2.42044 19.8757 2.71384 20.982C2.82042 21.3908 3.02485 21.769 3.31026 22.0853C3.59567 22.4016 3.95387 22.6469 4.35528 22.801C8.07544 24.2054 13.8981 24.2542 14.6843 24.2542H14.8338C15.62 24.2542 21.446 24.2054 25.1628 22.801C25.5642 22.6469 25.9224 22.4016 26.2078 22.0853C26.4932 21.769 26.6976 21.3908 26.8042 20.982C27.0976 19.8735 27.4465 17.8539 27.4465 14.4997C27.4465 11.1454 27.0976 9.12358 26.8042 8.01733ZM25.0495 20.543C25.015 20.679 24.948 20.8051 24.8541 20.9109C24.7602 21.0167 24.642 21.0992 24.5092 21.1516C20.9238 22.5061 14.8259 22.4818 14.767 22.4818H14.759C14.6979 22.4818 8.60446 22.5039 5.01685 21.1516C4.88405 21.0992 4.76584 21.0167 4.67191 20.9109C4.57799 20.8051 4.51102 20.679 4.47649 20.543C4.20122 19.531 3.88403 17.6666 3.88403 14.4997C3.88403 11.3328 4.20122 9.46832 4.46856 8.46182C4.50245 8.32502 4.56913 8.19807 4.66309 8.09148C4.75705 7.98489 4.87559 7.90171 5.00892 7.84884C8.46626 6.54195 14.2595 6.51867 14.7341 6.51867H14.7647C14.8259 6.51867 20.9249 6.49872 24.5069 7.84884C24.6397 7.90128 24.7579 7.98378 24.8518 8.08956C24.9457 8.19534 25.0127 8.32139 25.0472 8.45739C25.3168 9.46832 25.634 11.3328 25.634 14.4997C25.634 17.6666 25.3168 19.531 25.0495 20.5375V20.543Z" fill="black"/>
</svg>
