<svg width="627" height="197" viewBox="0 0 627 197" fill="none" xmlns="http://www.w3.org/2000/svg">
<mask id="path-1-inside-1_903_219" fill="white">
<path d="M600.006 0C600.27 14.7908 612.209 26.7294 627 26.9932V166.006C612.043 166.273 600 178.479 600 193.5C600 194.686 600.075 195.854 600.221 197H27.9941C27.9971 196.834 28 196.667 28 196.5C28 181.312 15.6878 169 0.5 169C0.332973 169 0.166319 169.003 0 169.006V26.9932C0.166325 26.9961 0.332967 27 0.5 27C15.5208 27 27.7274 14.9571 27.9941 0H600.006Z"/>
</mask>
<path d="M600.006 0C600.27 14.7908 612.209 26.7294 627 26.9932V166.006C612.043 166.273 600 178.479 600 193.5C600 194.686 600.075 195.854 600.221 197H27.9941C27.9971 196.834 28 196.667 28 196.5C28 181.312 15.6878 169 0.5 169C0.332973 169 0.166319 169.003 0 169.006V26.9932C0.166325 26.9961 0.332967 27 0.5 27C15.5208 27 27.7274 14.9571 27.9941 0H600.006Z" fill="#FCFDED"/>
<path d="M600.006 0L603.005 -0.0534839L602.953 -3H600.006V0ZM627 26.9932H630V24.0462L627.053 23.9936L627 26.9932ZM627 166.006L627.053 169.005L630 168.953V166.006H627ZM600.221 197V200H603.626L603.197 196.622L600.221 197ZM27.9941 197L24.9946 196.947L24.9402 200H27.9941V197ZM0 169.006H-3V172.06L0.0534839 172.005L0 169.006ZM0 26.9932L0.0534858 23.9936L-3 23.9392V26.9932H0ZM27.9941 0V-3H25.0472L24.9946 -0.0534839L27.9941 0ZM600.006 0L597.006 0.0534839C597.299 16.4594 610.541 29.7002 626.947 29.9927L627 26.9932L627.053 23.9936C613.878 23.7587 603.24 13.1222 603.005 -0.0534839L600.006 0ZM627 26.9932H624V166.006H627H630V26.9932H627ZM627 166.006L626.947 163.006C610.357 163.302 597 176.84 597 193.5H600H603C603 180.118 613.729 169.243 627.053 169.005L627 166.006ZM600 193.5H597C597 194.813 597.083 196.107 597.245 197.378L600.221 197L603.197 196.622C603.067 195.601 603 194.559 603 193.5H600ZM600.221 197V194H27.9941V197V200H600.221V197ZM27.9941 197L30.9937 197.053C30.9966 196.89 31 196.698 31 196.5H28H25C25 196.636 24.9976 196.777 24.9946 196.947L27.9941 197ZM28 196.5H31C31 179.655 17.3447 166 0.5 166V169V172C14.031 172 25 182.969 25 196.5H28ZM0.5 169V166C0.30227 166 0.109819 166.003 -0.0534839 166.006L0 169.006L0.0534839 172.005C0.222818 172.002 0.363676 172 0.5 172V169ZM0 169.006H3V26.9932H0H-3V169.006H0ZM0 26.9932L-0.0534858 29.9927C0.0906484 29.9953 0.298011 30 0.5 30V27V24C0.367923 24 0.242001 23.997 0.0534858 23.9936L0 26.9932ZM0.5 27V30C17.1599 30 30.6979 16.6432 30.9937 0.0534839L27.9941 0L24.9946 -0.0534839C24.757 13.271 13.8817 24 0.5 24V27ZM27.9941 0V3H600.006V0V-3H27.9941V0Z" fill="#636024" mask="url(#path-1-inside-1_903_219)"/>
</svg>
