<svg width="627" height="395" viewBox="0 0 627 395" fill="none" xmlns="http://www.w3.org/2000/svg">
<mask id="path-1-inside-1_903_207" fill="white">
<path d="M597.003 0C597.125 16.3382 610.405 29.5449 626.772 29.5449C626.848 29.5449 626.924 29.5426 627 29.542V365.002C626.924 365.001 626.848 365 626.772 365C610.33 365 597 378.33 597 394.772C597 394.848 597.002 394.924 597.003 395H29.542C29.5426 394.924 29.5449 394.848 29.5449 394.772C29.5449 378.405 16.3382 365.124 0 365.002V29.542C16.2625 29.4203 29.4203 16.2625 29.542 0H597.003Z"/>
</mask>
<path d="M597.003 0C597.125 16.3382 610.405 29.5449 626.772 29.5449C626.848 29.5449 626.924 29.5426 627 29.542V365.002C626.924 365.001 626.848 365 626.772 365C610.33 365 597 378.33 597 394.772C597 394.848 597.002 394.924 597.003 395H29.542C29.5426 394.924 29.5449 394.848 29.5449 394.772C29.5449 378.405 16.3382 365.124 0 365.002V29.542C16.2625 29.4203 29.4203 16.2625 29.542 0H597.003Z" fill="#FCFDED"/>
<path d="M597.003 0L600.003 -0.0224459L599.981 -3H597.003V0ZM626.772 29.5449V32.5449V32.5449V29.5449ZM627 29.542H630V26.5195L626.978 26.5421L627 29.542ZM627 365.002L626.978 368.002L630 368.024V365.002H627ZM626.772 365V362V362V365ZM597 394.772H594V394.772H597ZM597.003 395V398H600.025L600.003 394.978L597.003 395ZM29.542 395L26.5421 394.978L26.5195 398H29.542V395ZM29.5449 394.772H32.5449V394.772H29.5449ZM0 365.002H-3V367.98L-0.0224452 368.002L0 365.002ZM0 29.542L-0.0224461 26.5421L-3 26.5644V29.542H0ZM29.542 0V-3H26.5644L26.5421 -0.0224461L29.542 0ZM597.003 0L594.003 0.0224459C594.138 18.0072 608.756 32.5449 626.772 32.5449V29.5449V26.5449C612.055 26.5449 600.113 14.6692 600.003 -0.0224459L597.003 0ZM626.772 29.5449V32.5449C626.839 32.5449 626.9 32.5439 626.939 32.5432C626.985 32.5424 627.004 32.542 627.022 32.5419L627 29.542L626.978 26.5421C626.754 26.5437 626.886 26.5449 626.772 26.5449V29.5449ZM627 29.542H624V365.002H627H630V29.542H627ZM627 365.002L627.022 362.002C626.996 362.002 626.857 362 626.772 362V365V368C626.84 368 626.852 368.001 626.978 368.002L627 365.002ZM626.772 365V362C608.673 362 594 376.673 594 394.772H597H600C600 379.986 611.986 368 626.772 368V365ZM597 394.772H594C594 394.839 594.001 394.9 594.002 394.939C594.003 394.985 594.003 395.004 594.003 395.022L597.003 395L600.003 394.978C600.001 394.754 600 394.886 600 394.772H597ZM597.003 395V392H29.542V395V398H597.003V395ZM29.542 395L32.5419 395.022C32.542 395.004 32.5424 394.985 32.5432 394.939C32.5439 394.9 32.5449 394.839 32.5449 394.772H29.5449H26.5449C26.5449 394.886 26.5437 394.754 26.5421 394.978L29.542 395ZM29.5449 394.772H32.5449C32.5449 376.756 18.0073 362.137 0.0224452 362.002L0 365.002L-0.0224452 368.002C14.6691 368.112 26.5449 380.055 26.5449 394.772H29.5449ZM0 365.002H3V29.542H0H-3V365.002H0ZM0 29.542L0.0224461 32.5419C17.9242 32.408 32.408 17.9242 32.5419 0.0224461L29.542 0L26.5421 -0.0224461C26.4327 14.6007 14.6007 26.4327 -0.0224461 26.5421L0 29.542ZM29.542 0V3H597.003V0V-3H29.542V0Z" fill="#636024" mask="url(#path-1-inside-1_903_207)"/>
</svg>
