<svg width="538" height="976" viewBox="0 0 538 976" fill="none" xmlns="http://www.w3.org/2000/svg">
<mask id="path-1-inside-1_903_255" fill="white">
<path d="M511.006 0C511.27 14.7908 523.209 26.7294 538 26.9932V948.006C523.043 948.273 511 960.479 511 975.5C511 975.667 511.003 975.834 511.006 976H27.9941C27.9971 975.834 28 975.667 28 975.5C28 960.312 15.6878 948 0.5 948C0.332973 948 0.166319 948.003 0 948.006V26.9932C0.166325 26.9961 0.332967 27 0.5 27C15.5208 27 27.7274 14.9571 27.9941 0H511.006Z"/>
</mask>
<path d="M511.006 0C511.27 14.7908 523.209 26.7294 538 26.9932V948.006C523.043 948.273 511 960.479 511 975.5C511 975.667 511.003 975.834 511.006 976H27.9941C27.9971 975.834 28 975.667 28 975.5C28 960.312 15.6878 948 0.5 948C0.332973 948 0.166319 948.003 0 948.006V26.9932C0.166325 26.9961 0.332967 27 0.5 27C15.5208 27 27.7274 14.9571 27.9941 0H511.006Z" fill="#FCFDED"/>
<path d="M511.006 0L514.005 -0.0534839L513.953 -3H511.006V0ZM538 26.9932H541V24.0462L538.053 23.9936L538 26.9932ZM538 948.006L538.053 951.005L541 950.953V948.006H538ZM511.006 976V979H514.06L514.005 975.947L511.006 976ZM27.9941 976L24.9946 975.947L24.9402 979H27.9941V976ZM0 948.006H-3V951.06L0.0534839 951.005L0 948.006ZM0 26.9932L0.0534858 23.9936L-3 23.9392V26.9932H0ZM27.9941 0V-3H25.0472L24.9946 -0.0534839L27.9941 0ZM511.006 0L508.006 0.0534839C508.299 16.4594 521.541 29.7002 537.947 29.9927L538 26.9932L538.053 23.9936C524.878 23.7587 514.24 13.1222 514.005 -0.0534839L511.006 0ZM538 26.9932H535V948.006H538H541V26.9932H538ZM538 948.006L537.947 945.006C521.357 945.302 508 958.84 508 975.5H511H514C514 962.118 524.729 951.243 538.053 951.005L538 948.006ZM511 975.5H508C508 975.698 508.003 975.89 508.006 976.053L511.006 976L514.005 975.947C514.002 975.777 514 975.636 514 975.5H511ZM511.006 976V973H27.9941V976V979H511.006V976ZM27.9941 976L30.9937 976.053C30.9966 975.89 31 975.698 31 975.5H28H25C25 975.636 24.9976 975.777 24.9946 975.947L27.9941 976ZM28 975.5H31C31 958.655 17.3447 945 0.5 945V948V951C14.031 951 25 961.969 25 975.5H28ZM0.5 948V945C0.30227 945 0.109819 945.003 -0.0534839 945.006L0 948.006L0.0534839 951.005C0.222818 951.002 0.363676 951 0.5 951V948ZM0 948.006H3V26.9932H0H-3V948.006H0ZM0 26.9932L-0.0534858 29.9927C0.0906484 29.9953 0.298011 30 0.5 30V27V24C0.367923 24 0.242001 23.997 0.0534858 23.9936L0 26.9932ZM0.5 27V30C17.1599 30 30.6979 16.6432 30.9937 0.0534839L27.9941 0L24.9946 -0.0534839C24.757 13.271 13.8817 24 0.5 24V27ZM27.9941 0V3H511.006V0V-3H27.9941V0Z" fill="#636024" mask="url(#path-1-inside-1_903_255)"/>
<mask id="path-3-inside-2_903_255" fill="white">
<path d="M491 16C491 30.1891 502.148 41.7215 516 41.9932V935C501.641 935 490 946.641 490 961H47.9238C47.974 960.34 48 959.673 48 959C48 944.641 36.3594 933 22 933C21.6651 933 21.3318 933.008 21 933.021V39.9932C21.1663 39.9964 21.3329 40 21.5 40C35.0797 40 46.1786 29.385 46.9551 16H491Z"/>
</mask>
<path d="M491 16H494V13H491V16ZM516 41.9932H519V39.0514L516.059 38.9937L516 41.9932ZM516 935V938H519V935H516ZM490 961V964H493V961H490ZM47.9238 961L44.9325 960.772L44.6869 964H47.9238V961ZM21 933.021H18V936.136L21.1134 936.018L21 933.021ZM21 39.9932L21.0577 36.9937L18 36.9349V39.9932H21ZM46.9551 16V13H44.1241L43.9601 15.8263L46.9551 16ZM491 16H488C488 31.7729 500.405 44.6879 515.941 44.9926L516 41.9932L516.059 38.9937C503.89 38.7551 494 28.6052 494 16H491ZM516 41.9932H513V935H516H519V41.9932H516ZM516 935V932C499.984 932 487 944.984 487 961H490H493C493 948.297 503.297 938 516 938V935ZM490 961V958H47.9238V961V964H490V961ZM47.9238 961L50.9152 961.228C50.9711 960.493 51 959.75 51 959H48H45C45 959.596 44.977 960.187 44.9325 960.772L47.9238 961ZM48 959H51C51 942.984 38.0163 930 22 930V933V936C34.7025 936 45 946.297 45 959H48ZM22 933V930C21.6182 930 21.2458 930.009 20.8866 930.023L21 933.021L21.1134 936.018C21.4178 936.007 21.7121 936 22 936V933ZM21 933.021H24V39.9932H21H18V933.021H21ZM21 39.9932L20.9423 42.9926C21.0957 42.9956 21.2971 43 21.5 43V40V37C21.3688 37 21.2369 36.9972 21.0577 36.9937L21 39.9932ZM21.5 40V43C36.6786 43 49.0821 31.1359 49.95 16.1737L46.9551 16L43.9601 15.8263C43.2751 27.6341 33.4808 37 21.5 37V40ZM46.9551 16V19H491V16V13H46.9551V16Z" fill="#636024" mask="url(#path-3-inside-2_903_255)"/>
</svg>
