<svg width="1376" height="247" viewBox="0 0 1376 247" fill="none" xmlns="http://www.w3.org/2000/svg">
<mask id="path-1-inside-1_903_234" fill="white">
<path d="M1347.43 0C1347.43 13.5915 1359.82 24.6501 1375.26 24.9922L1376 25V222C1360.22 222 1347.43 233.193 1347.43 247H28.5723C28.5723 233.193 15.7796 222 0 222V25C15.5329 25 28.1712 14.1543 28.5625 0.645508L28.5723 0H1347.43Z"/>
</mask>
<path d="M1347.43 0C1347.43 13.5915 1359.82 24.6501 1375.26 24.9922L1376 25V222C1360.22 222 1347.43 233.193 1347.43 247H28.5723C28.5723 233.193 15.7796 222 0 222V25C15.5329 25 28.1712 14.1543 28.5625 0.645508L28.5723 0H1347.43Z" fill="#FCFDED"/>
<path d="M1347.43 0H1350.43V-3H1347.43V0ZM1375.26 24.9922L1375.2 27.9915L1375.21 27.9918L1375.23 27.992L1375.26 24.9922ZM1376 25H1379V22.0316L1376.03 22.0002L1376 25ZM1376 222V225H1379V222H1376ZM1347.43 247V250H1350.43V247H1347.43ZM28.5723 247H25.5723V250H28.5723V247ZM0 222H-3V225H0V222ZM0 25V22H-3V25H0ZM28.5625 0.645508L31.5612 0.732368L31.5618 0.711631L31.5622 0.690888L28.5625 0.645508ZM28.5723 0V-3H25.6173L25.5726 -0.0453806L28.5723 0ZM1347.43 0H1344.43C1344.43 15.5779 1358.51 27.6216 1375.2 27.9915L1375.26 24.9922L1375.33 21.9929C1361.14 21.6785 1350.43 11.605 1350.43 0H1347.43ZM1375.26 24.9922L1375.23 27.992L1375.97 27.9998L1376 25L1376.03 22.0002L1375.29 21.9924L1375.26 24.9922ZM1376 25H1373V222H1376H1379V25H1376ZM1376 222V219C1358.95 219 1344.43 231.172 1344.43 247H1347.43H1350.43C1350.43 235.213 1361.49 225 1376 225V222ZM1347.43 247V244H28.5723V247V250H1347.43V247ZM28.5723 247H31.5723C31.5723 231.172 17.0475 219 0 219V222V225C14.5116 225 25.5723 235.214 25.5723 247H28.5723ZM0 222H3V25H0H-3V222H0ZM0 25V28C16.7881 28 31.113 16.2078 31.5612 0.732368L28.5625 0.645508L25.5638 0.558647C25.2294 12.1008 14.2777 22 0 22V25ZM28.5625 0.645508L31.5622 0.690888L31.5719 0.0453806L28.5723 0L25.5726 -0.0453806L25.5628 0.600127L28.5625 0.645508ZM28.5723 0V3H1347.43V0V-3H28.5723V0Z" fill="#636024" mask="url(#path-1-inside-1_903_234)"/>
</svg>
