<svg width="593" height="257" viewBox="0 0 593 257" fill="none" xmlns="http://www.w3.org/2000/svg">
<path d="M566.093 255.5H27.8477C24.8365 237.383 9.02791 231.373 1.5 230.633V28.5874C25.5893 27.1664 30.6707 9.93706 30.2002 1.5H563.741C564.117 22.4594 582.404 27.9953 591.5 28.1434V231.077C572.68 233.564 566.721 248.395 566.093 255.5Z" fill="#FCFDED" stroke="#636024" stroke-width="3"/>
<path d="M556.041 245.5H37.8652C34.9663 229.237 19.7472 223.843 12.5 223.178V41.8147C35.6911 40.5392 40.5829 25.0734 40.13 17.5H553.776C554.138 36.314 571.743 41.2832 580.5 41.4161V223.577C562.382 225.809 556.645 239.122 556.041 245.5Z" fill="#FCFDED" stroke="#636024" stroke-width="3"/>
</svg>
