<svg width="627" height="286" viewBox="0 0 627 286" fill="none" xmlns="http://www.w3.org/2000/svg">
<mask id="path-1-inside-1_903_207" fill="white">
<path d="M601 0.5C601 15.1845 612.51 27.1791 627 27.958V258.041C612.51 258.82 601 270.815 601 285.5C601 285.667 601.003 285.834 601.006 286H28.9941C28.9971 285.834 29 285.667 29 285.5C29 270.312 16.6878 258 1.5 258C0.996713 258 0.496628 258.014 0 258.041V27.958C0.496645 27.9847 0.996696 28 1.5 28C16.6878 28 29 15.6878 29 0.5C29 0.332973 28.9971 0.166319 28.9941 0H601.006C601.003 0.166319 601 0.332973 601 0.5Z"/>
</mask>
<path d="M601 0.5C601 15.1845 612.51 27.1791 627 27.958V258.041C612.51 258.82 601 270.815 601 285.5C601 285.667 601.003 285.834 601.006 286H28.9941C28.9971 285.834 29 285.667 29 285.5C29 270.312 16.6878 258 1.5 258C0.996713 258 0.496628 258.014 0 258.041V27.958C0.496645 27.9847 0.996696 28 1.5 28C16.6878 28 29 15.6878 29 0.5C29 0.332973 28.9971 0.166319 28.9941 0H601.006C601.003 0.166319 601 0.332973 601 0.5Z" fill="#FCFDED"/>
<path d="M627 27.958H630V25.1149L627.161 24.9623L627 27.958ZM627 258.041L627.161 261.037L630 260.884V258.041H627ZM601.006 286V289H604.06L604.005 285.947L601.006 286ZM28.9941 286L25.9946 285.947L25.9402 289H28.9941V286ZM0 258.041H-3V261.207L0.161034 261.037L0 258.041ZM0 27.958L0.161039 24.9623L-3 24.7924V27.958H0ZM28.9941 0V-3H25.9402L25.9946 0.0534839L28.9941 0ZM601.006 0L604.005 0.0534839L604.06 -3H601.006V0ZM601 0.5H598C598 16.7877 610.766 30.0896 626.839 30.9537L627 27.958L627.161 24.9623C614.254 24.2685 604 13.5814 604 0.5H601ZM627 27.958H624V258.041H627H630V27.958H627ZM627 258.041L626.839 255.045C610.766 255.909 598 269.212 598 285.5H601H604C604 272.418 614.254 261.73 627.161 261.037L627 258.041ZM601 285.5H598C598 285.698 598.003 285.89 598.006 286.053L601.006 286L604.005 285.947C604.002 285.777 604 285.636 604 285.5H601ZM601.006 286V283H28.9941V286V289H601.006V286ZM28.9941 286L31.9937 286.053C31.9966 285.89 32 285.698 32 285.5H29H26C26 285.636 25.9976 285.777 25.9946 285.947L28.9941 286ZM29 285.5H32C32 268.655 18.3447 255 1.5 255V258V261C15.031 261 26 271.969 26 285.5H29ZM1.5 258V255C0.939825 255 0.385949 255.016 -0.161034 255.045L0 258.041L0.161034 261.037C0.607306 261.013 1.0536 261 1.5 261V258ZM0 258.041H3V27.958H0H-3V258.041H0ZM0 27.958L-0.161039 30.9537C0.381882 30.9829 0.936094 31 1.5 31V28V25C1.0573 25 0.611408 24.9865 0.161039 24.9623L0 27.958ZM1.5 28V31C18.3447 31 32 17.3447 32 0.5H29H26C26 14.031 15.031 25 1.5 25V28ZM29 0.5H32C32 0.30227 31.9966 0.109819 31.9937 -0.0534839L28.9941 0L25.9946 0.0534839C25.9976 0.222818 26 0.363676 26 0.5H29ZM28.9941 0V3H601.006V0V-3H28.9941V0ZM601.006 0L598.006 -0.0534839C598.003 0.109819 598 0.30227 598 0.5H601H604C604 0.363676 604.002 0.222818 604.005 0.0534839L601.006 0Z" fill="#636024" mask="url(#path-1-inside-1_903_207)"/>
</svg>
