<svg width="590" height="385" viewBox="0 0 590 385" fill="none" xmlns="http://www.w3.org/2000/svg">
<mask id="path-1-inside-1_999_87" fill="white">
<path d="M561.002 0C561.066 15.8955 573.97 28.7617 589.881 28.7617C589.921 28.7617 589.96 28.7599 590 28.7598V356.001C589.96 356.001 589.921 356 589.881 356C573.93 356 561 368.93 561 384.881C561 384.921 561.002 384.96 561.002 385H28.7598C28.7599 384.96 28.7617 384.921 28.7617 384.881C28.7617 368.97 15.8955 356.065 0 356.001V28.7598C15.8558 28.6957 28.6957 15.8558 28.7598 0H561.002Z"/>
</mask>
<path d="M561.002 0C561.066 15.8955 573.97 28.7617 589.881 28.7617C589.921 28.7617 589.96 28.7599 590 28.7598V356.001C589.96 356.001 589.921 356 589.881 356C573.93 356 561 368.93 561 384.881C561 384.921 561.002 384.96 561.002 385H28.7598C28.7599 384.96 28.7617 384.921 28.7617 384.881C28.7617 368.97 15.8955 356.065 0 356.001V28.7598C15.8558 28.6957 28.6957 15.8558 28.7598 0H561.002Z" fill="#FCFDED"/>
<path d="M561.002 0L564.002 -0.0121275L563.99 -3H561.002V0ZM589.881 28.7617V31.7617V31.7617V28.7617ZM590 28.7598H593V25.7476L589.988 25.7598L590 28.7598ZM590 356.001L589.988 359.001L593 359.013V356.001H590ZM589.881 356V353V353V356ZM561 384.881H558V384.881H561ZM561.002 385V388H564.014L564.002 384.988L561.002 385ZM28.7598 385L25.7598 384.988L25.7476 388H28.7598V385ZM28.7617 384.881H31.7617V384.881H28.7617ZM0 356.001H-3V358.989L-0.0121271 359.001L0 356.001ZM0 28.7598L-0.0121274 25.7598L-3 25.7719V28.7598H0ZM28.7598 0V-3H25.7719L25.7598 -0.0121274L28.7598 0ZM561.002 0L558.002 0.0121275C558.073 17.5589 572.317 31.7617 589.881 31.7617V28.7617V25.7617C575.623 25.7617 564.06 14.2322 564.002 -0.0121275L561.002 0ZM589.881 28.7617V31.7617C589.941 31.7617 589.994 31.7604 590.011 31.76C590.024 31.7597 590.026 31.7596 590.028 31.7596C590.028 31.7596 590.022 31.7597 590.012 31.7597L590 28.7598L589.988 25.7598C589.958 25.7599 589.932 25.7603 589.913 25.7607C589.895 25.761 589.877 25.7615 589.87 25.7616C589.86 25.7619 589.858 25.7619 589.859 25.7619C589.861 25.7619 589.869 25.7617 589.881 25.7617V28.7617ZM590 28.7598H587V356.001H590H593V28.7598H590ZM590 356.001L590.012 353.001C590.006 353.001 589.999 353.001 589.974 353.001C589.954 353 589.919 353 589.881 353V356V359C589.881 359 589.882 359 589.887 359C589.891 359 589.897 359 589.907 359C589.921 359 589.954 359.001 589.988 359.001L590 356.001ZM589.881 356V353C572.274 353 558 367.274 558 384.881H561H564C564 370.587 575.587 359 589.881 359V356ZM561 384.881H558C558 384.941 558.001 384.994 558.002 385.011C558.002 385.024 558.002 385.026 558.002 385.028C558.002 385.028 558.002 385.022 558.002 385.012L561.002 385L564.002 384.988C564.002 384.958 564.001 384.932 564.001 384.913C564.001 384.895 564 384.877 564 384.87C564 384.86 564 384.858 564 384.859C564 384.861 564 384.869 564 384.881H561ZM561.002 385V382H28.7598V385V388H561.002V385ZM28.7598 385L31.7597 385.012C31.7597 385.022 31.7596 385.028 31.7596 385.028C31.7596 385.026 31.7597 385.024 31.76 385.011C31.7604 384.994 31.7617 384.941 31.7617 384.881H28.7617H25.7617C25.7617 384.869 25.7619 384.861 25.7619 384.859C25.7619 384.858 25.7619 384.86 25.7616 384.87C25.7615 384.877 25.761 384.895 25.7607 384.913C25.7603 384.932 25.7599 384.958 25.7598 384.988L28.7598 385ZM28.7617 384.881H31.7617C31.7617 367.317 17.559 353.072 0.0121271 353.001L0 356.001L-0.0121271 359.001C14.2321 359.059 25.7617 370.623 25.7617 384.881H28.7617ZM0 356.001H3V28.7598H0H-3V356.001H0ZM0 28.7598L0.0121274 31.7597C17.5153 31.689 31.689 17.5153 31.7597 0.0121274L28.7598 0L25.7598 -0.0121274C25.7024 14.1963 14.1963 25.7024 -0.0121274 25.7598L0 28.7598ZM28.7598 0V3H561.002V0V-3H28.7598V0Z" fill="#636024" mask="url(#path-1-inside-1_999_87)"/>
<mask id="path-3-inside-2_999_87" fill="white">
<path d="M553.006 20C553.258 34.253 564.752 45.7614 579 46.0361V339.006C578.841 339.003 578.681 339 578.521 339C563.874 339 552 350.874 552 365.521C552 365.681 552.003 365.841 552.006 366H37.0371C37.0399 365.841 37.043 365.681 37.043 365.521C37.043 351.034 25.4265 339.261 11 339.006V46.0361C11.1734 46.0395 11.3473 46.043 11.5215 46.043C26.0089 46.0429 37.7818 34.4265 38.0371 20H553.006Z"/>
</mask>
<path d="M553.006 20C553.258 34.253 564.752 45.7614 579 46.0361V339.006C578.841 339.003 578.681 339 578.521 339C563.874 339 552 350.874 552 365.521C552 365.681 552.003 365.841 552.006 366H37.0371C37.0399 365.841 37.043 365.681 37.043 365.521C37.043 351.034 25.4265 339.261 11 339.006V46.0361C11.1734 46.0395 11.3473 46.043 11.5215 46.043C26.0089 46.0429 37.7818 34.4265 38.0371 20H553.006Z" fill="#FCFDED"/>
<path d="M553.006 20L556.005 19.9469L555.953 17H553.006V20ZM579 46.0361H582V43.0934L579.058 43.0367L579 46.0361ZM579 339.006L578.947 342.005L582 342.059V339.006H579ZM578.521 339V336V336V339ZM552 365.521H549V365.521H552ZM552.006 366V369H555.059L555.005 365.947L552.006 366ZM37.0371 366L34.0376 365.947L33.9835 369H37.0371V366ZM37.043 365.521H40.043V365.521H37.043ZM11 339.006H8V341.953L10.9469 342.005L11 339.006ZM11 46.0361L11.0578 43.0367L8 42.9777V46.0361H11ZM11.5215 46.043V49.043H11.5215L11.5215 46.043ZM38.0371 20V17H35.0897L35.0376 19.9469L38.0371 20ZM553.006 20L550.006 20.0531C550.287 35.9198 563.081 48.7297 578.942 49.0356L579 46.0361L579.058 43.0367C566.423 42.7931 556.229 32.5863 556.005 19.9469L553.006 20ZM579 46.0361H576V339.006H579H582V46.0361H579ZM579 339.006L579.053 336.006C578.903 336.004 578.714 336 578.521 336V339V342C578.649 342 578.779 342.002 578.947 342.005L579 339.006ZM578.521 339V336C562.217 336 549 349.217 549 365.521H552H555C555 352.531 565.531 342 578.521 342V339ZM552 365.521H549C549 365.714 549.004 365.902 549.006 366.053L552.006 366L555.005 365.947C555.002 365.779 555 365.649 555 365.521H552ZM552.006 366V363H37.0371V366V369H552.006V366ZM37.0371 366L40.0366 366.053C40.0393 365.902 40.043 365.714 40.043 365.521H37.043H34.043C34.043 365.649 34.0405 365.779 34.0376 365.947L37.0371 366ZM37.043 365.521H40.043C40.043 349.395 27.1123 336.291 11.0531 336.006L11 339.006L10.9469 342.005C23.7407 342.232 34.043 352.673 34.043 365.521H37.043ZM11 339.006H14V46.0361H11H8V339.006H11ZM11 46.0361L10.9422 49.0356C11.1084 49.0388 11.3128 49.043 11.5215 49.043V46.043V43.043C11.3818 43.043 11.2384 43.0402 11.0578 43.0367L11 46.0361ZM11.5215 46.043L11.5215 49.043C27.6482 49.0429 40.7524 36.1123 41.0366 20.0531L38.0371 20L35.0376 19.9469C34.8112 32.7407 24.3696 43.0429 11.5215 43.043L11.5215 46.043ZM38.0371 20V23H553.006V20V17H38.0371V20Z" fill="#636024" mask="url(#path-3-inside-2_999_87)"/>
</svg>
